<?xml version="1.0" encoding="utf-8" standalone="no"?>
<!DOCTYPE svg PUBLIC "-//W3C//DTD SVG 1.1//EN"
  "http://www.w3.org/Graphics/SVG/1.1/DTD/svg11.dtd">
<!-- Created with matplotlib (https://matplotlib.org/) -->
<svg height="709.92pt" version="1.1" viewBox="0 0 1382.4 709.92" width="1382.4pt" xmlns="http://www.w3.org/2000/svg" xmlns:xlink="http://www.w3.org/1999/xlink">
 <defs>
  <style type="text/css">
*{stroke-linecap:butt;stroke-linejoin:round;}
  </style>
 </defs>
 <g id="figure_1">
  <g id="patch_1">
   <path d="M 0 709.92 
L 1382.4 709.92 
L 1382.4 0 
L 0 0 
z
" style="fill:#ffffff;"/>
  </g>
  <g id="axes_1">
   <g id="patch_2">
    <path d="M 172.8 631.8288 
L 659.781818 631.8288 
L 659.781818 85.1904 
L 172.8 85.1904 
z
" style="fill:#ffffff;"/>
   </g>
   <g id="matplotlib.axis_1">
    <g id="xtick_1">
     <g id="line2d_1">
      <path clip-path="url(#pe971727c8c)" d="M 194.935537 631.8288 
L 194.935537 85.1904 
" style="fill:none;stroke:#b0b0b0;stroke-linecap:square;stroke-width:0.8;"/>
     </g>
     <g id="line2d_2">
      <defs>
       <path d="M 0 0 
L 0 3.5 
" id="md4b79b33f2" style="stroke:#000000;stroke-width:0.8;"/>
      </defs>
      <g>
       <use style="stroke:#000000;stroke-width:0.8;" x="194.935537" xlink:href="#md4b79b33f2" y="631.8288"/>
      </g>
     </g>
     <g id="text_1">
      <!-- -10.0 -->
      <defs>
       <path d="M 46.484375 33.203125 
L 1.953125 33.203125 
L 1.953125 39.453125 
L 46.484375 39.453125 
z
" id="SimHei-45"/>
       <path d="M 21.875 56.25 
Q 16.796875 51.171875 8.984375 46.484375 
L 8.984375 53.90625 
Q 18.75 60.546875 25 69.53125 
L 29.6875 69.53125 
L 29.6875 2.34375 
L 21.875 2.34375 
z
" id="SimHei-49"/>
       <path d="M 3.125 29.296875 
Q 3.90625 50 6.4375 56.046875 
Q 8.984375 62.109375 13.671875 66.015625 
Q 18.359375 69.921875 25.1875 69.921875 
Q 32.03125 69.921875 37.109375 64.25 
Q 42.1875 58.59375 43.75 50 
Q 45.3125 41.40625 44.71875 30.265625 
Q 44.140625 19.140625 40.8125 12.109375 
Q 37.5 5.078125 30.859375 2.34375 
Q 24.21875 -0.390625 17.578125 2.921875 
Q 10.9375 6.25 8.203125 11.71875 
Q 5.46875 17.1875 4.296875 23.234375 
Q 3.125 29.296875 3.90625 50 
z
M 12.890625 52.734375 
Q 10.546875 31.25 12.5 22.84375 
Q 14.453125 14.453125 18.9375 10.9375 
Q 23.4375 7.421875 28.125 9.5625 
Q 32.8125 11.71875 34.953125 18.15625 
Q 37.109375 24.609375 37.109375 32.21875 
Q 37.109375 39.84375 36.515625 46.09375 
Q 35.9375 52.34375 33 57.421875 
Q 30.078125 62.5 25.1875 62.6875 
Q 20.3125 62.890625 16.59375 57.8125 
Q 12.890625 52.734375 10.546875 31.25 
z
" id="SimHei-48"/>
       <path d="M 16.796875 1.953125 
L 7.8125 1.953125 
L 7.8125 10.546875 
L 16.796875 10.546875 
z
" id="SimHei-46"/>
      </defs>
      <g transform="translate(182.435537 645.7038)scale(0.1 -0.1)">
       <use xlink:href="#SimHei-45"/>
       <use x="50" xlink:href="#SimHei-49"/>
       <use x="100" xlink:href="#SimHei-48"/>
       <use x="150" xlink:href="#SimHei-46"/>
       <use x="200" xlink:href="#SimHei-48"/>
      </g>
     </g>
    </g>
    <g id="xtick_2">
     <g id="line2d_3">
      <path clip-path="url(#pe971727c8c)" d="M 250.27438 631.8288 
L 250.27438 85.1904 
" style="fill:none;stroke:#b0b0b0;stroke-linecap:square;stroke-width:0.8;"/>
     </g>
     <g id="line2d_4">
      <g>
       <use style="stroke:#000000;stroke-width:0.8;" x="250.27438" xlink:href="#md4b79b33f2" y="631.8288"/>
      </g>
     </g>
     <g id="text_2">
      <!-- -7.5 -->
      <defs>
       <path d="M 13.28125 2.34375 
Q 20.3125 32.03125 37.890625 61.328125 
L 4.296875 61.328125 
L 4.296875 68.359375 
L 46.09375 68.359375 
L 46.09375 61.71875 
Q 27.734375 32.03125 21.875 2.34375 
L 13.28125 2.34375 
z
" id="SimHei-55"/>
       <path d="M 8.59375 20.703125 
Q 11.328125 10.15625 17.96875 8.984375 
Q 24.609375 7.8125 28.703125 10.34375 
Q 32.8125 12.890625 34.5625 16.984375 
Q 36.328125 21.09375 36.125 26.171875 
Q 35.9375 31.25 33.390625 34.765625 
Q 30.859375 38.28125 26.953125 39.453125 
Q 23.046875 40.625 18.15625 39.453125 
Q 13.28125 38.28125 10.15625 33.984375 
L 3.515625 34.765625 
Q 4.296875 37.109375 10.9375 68.359375 
L 41.796875 68.359375 
L 41.796875 61.328125 
L 16.796875 61.328125 
Q 14.84375 50.78125 12.890625 44.53125 
Q 18.75 47.265625 23.828125 47.0625 
Q 28.90625 46.875 33.59375 44.71875 
Q 38.28125 42.578125 40.421875 38.859375 
Q 42.578125 35.15625 43.546875 31.4375 
Q 44.53125 27.734375 44.328125 23.4375 
Q 44.140625 19.140625 42.578125 14.640625 
Q 41.015625 10.15625 37.890625 7.21875 
Q 34.765625 4.296875 30.265625 2.53125 
Q 25.78125 0.78125 19.921875 1.171875 
Q 14.0625 1.5625 8.78125 5.46875 
Q 3.515625 9.375 1.5625 18.75 
z
" id="SimHei-53"/>
      </defs>
      <g transform="translate(240.27438 645.7038)scale(0.1 -0.1)">
       <use xlink:href="#SimHei-45"/>
       <use x="50" xlink:href="#SimHei-55"/>
       <use x="100" xlink:href="#SimHei-46"/>
       <use x="150" xlink:href="#SimHei-53"/>
      </g>
     </g>
    </g>
    <g id="xtick_3">
     <g id="line2d_5">
      <path clip-path="url(#pe971727c8c)" d="M 305.613223 631.8288 
L 305.613223 85.1904 
" style="fill:none;stroke:#b0b0b0;stroke-linecap:square;stroke-width:0.8;"/>
     </g>
     <g id="line2d_6">
      <g>
       <use style="stroke:#000000;stroke-width:0.8;" x="305.613223" xlink:href="#md4b79b33f2" y="631.8288"/>
      </g>
     </g>
     <g id="text_3">
      <!-- -5.0 -->
      <g transform="translate(295.613223 645.7038)scale(0.1 -0.1)">
       <use xlink:href="#SimHei-45"/>
       <use x="50" xlink:href="#SimHei-53"/>
       <use x="100" xlink:href="#SimHei-46"/>
       <use x="150" xlink:href="#SimHei-48"/>
      </g>
     </g>
    </g>
    <g id="xtick_4">
     <g id="line2d_7">
      <path clip-path="url(#pe971727c8c)" d="M 360.952066 631.8288 
L 360.952066 85.1904 
" style="fill:none;stroke:#b0b0b0;stroke-linecap:square;stroke-width:0.8;"/>
     </g>
     <g id="line2d_8">
      <g>
       <use style="stroke:#000000;stroke-width:0.8;" x="360.952066" xlink:href="#md4b79b33f2" y="631.8288"/>
      </g>
     </g>
     <g id="text_4">
      <!-- -2.5 -->
      <defs>
       <path d="M 4.6875 3.90625 
Q 5.078125 9.765625 10.15625 14.453125 
Q 15.234375 19.140625 23.046875 29.09375 
Q 30.859375 39.0625 33.203125 44.53125 
Q 35.546875 50 34.953125 53.90625 
Q 34.375 57.8125 31.25 60.34375 
Q 28.125 62.890625 24.015625 62.5 
Q 19.921875 62.109375 16.203125 59.375 
Q 12.5 56.640625 10.546875 51.171875 
L 3.125 52.34375 
Q 6.25 61.328125 11.125 65.421875 
Q 16.015625 69.53125 22.65625 69.921875 
Q 26.5625 70.3125 29.6875 69.71875 
Q 32.8125 69.140625 36.125 66.984375 
Q 39.453125 64.84375 41.59375 60.546875 
Q 43.75 56.25 43.15625 50.1875 
Q 42.578125 44.140625 37.109375 35.734375 
Q 31.640625 27.34375 16.015625 9.375 
L 44.140625 9.375 
L 44.140625 2.34375 
L 4.6875 2.34375 
z
" id="SimHei-50"/>
      </defs>
      <g transform="translate(350.952066 645.7038)scale(0.1 -0.1)">
       <use xlink:href="#SimHei-45"/>
       <use x="50" xlink:href="#SimHei-50"/>
       <use x="100" xlink:href="#SimHei-46"/>
       <use x="150" xlink:href="#SimHei-53"/>
      </g>
     </g>
    </g>
    <g id="xtick_5">
     <g id="line2d_9">
      <path clip-path="url(#pe971727c8c)" d="M 416.290909 631.8288 
L 416.290909 85.1904 
" style="fill:none;stroke:#b0b0b0;stroke-linecap:square;stroke-width:0.8;"/>
     </g>
     <g id="line2d_10">
      <g>
       <use style="stroke:#000000;stroke-width:0.8;" x="416.290909" xlink:href="#md4b79b33f2" y="631.8288"/>
      </g>
     </g>
     <g id="text_5">
      <!-- 0.0 -->
      <g transform="translate(408.790909 645.7038)scale(0.1 -0.1)">
       <use xlink:href="#SimHei-48"/>
       <use x="50" xlink:href="#SimHei-46"/>
       <use x="100" xlink:href="#SimHei-48"/>
      </g>
     </g>
    </g>
    <g id="xtick_6">
     <g id="line2d_11">
      <path clip-path="url(#pe971727c8c)" d="M 471.629752 631.8288 
L 471.629752 85.1904 
" style="fill:none;stroke:#b0b0b0;stroke-linecap:square;stroke-width:0.8;"/>
     </g>
     <g id="line2d_12">
      <g>
       <use style="stroke:#000000;stroke-width:0.8;" x="471.629752" xlink:href="#md4b79b33f2" y="631.8288"/>
      </g>
     </g>
     <g id="text_6">
      <!-- 2.5 -->
      <g transform="translate(464.129752 645.7038)scale(0.1 -0.1)">
       <use xlink:href="#SimHei-50"/>
       <use x="50" xlink:href="#SimHei-46"/>
       <use x="100" xlink:href="#SimHei-53"/>
      </g>
     </g>
    </g>
    <g id="xtick_7">
     <g id="line2d_13">
      <path clip-path="url(#pe971727c8c)" d="M 526.968595 631.8288 
L 526.968595 85.1904 
" style="fill:none;stroke:#b0b0b0;stroke-linecap:square;stroke-width:0.8;"/>
     </g>
     <g id="line2d_14">
      <g>
       <use style="stroke:#000000;stroke-width:0.8;" x="526.968595" xlink:href="#md4b79b33f2" y="631.8288"/>
      </g>
     </g>
     <g id="text_7">
      <!-- 5.0 -->
      <g transform="translate(519.468595 645.7038)scale(0.1 -0.1)">
       <use xlink:href="#SimHei-53"/>
       <use x="50" xlink:href="#SimHei-46"/>
       <use x="100" xlink:href="#SimHei-48"/>
      </g>
     </g>
    </g>
    <g id="xtick_8">
     <g id="line2d_15">
      <path clip-path="url(#pe971727c8c)" d="M 582.307438 631.8288 
L 582.307438 85.1904 
" style="fill:none;stroke:#b0b0b0;stroke-linecap:square;stroke-width:0.8;"/>
     </g>
     <g id="line2d_16">
      <g>
       <use style="stroke:#000000;stroke-width:0.8;" x="582.307438" xlink:href="#md4b79b33f2" y="631.8288"/>
      </g>
     </g>
     <g id="text_8">
      <!-- 7.5 -->
      <g transform="translate(574.807438 645.7038)scale(0.1 -0.1)">
       <use xlink:href="#SimHei-55"/>
       <use x="50" xlink:href="#SimHei-46"/>
       <use x="100" xlink:href="#SimHei-53"/>
      </g>
     </g>
    </g>
    <g id="xtick_9">
     <g id="line2d_17">
      <path clip-path="url(#pe971727c8c)" d="M 637.646281 631.8288 
L 637.646281 85.1904 
" style="fill:none;stroke:#b0b0b0;stroke-linecap:square;stroke-width:0.8;"/>
     </g>
     <g id="line2d_18">
      <g>
       <use style="stroke:#000000;stroke-width:0.8;" x="637.646281" xlink:href="#md4b79b33f2" y="631.8288"/>
      </g>
     </g>
     <g id="text_9">
      <!-- 10.0 -->
      <g transform="translate(627.646281 645.7038)scale(0.1 -0.1)">
       <use xlink:href="#SimHei-49"/>
       <use x="50" xlink:href="#SimHei-48"/>
       <use x="100" xlink:href="#SimHei-46"/>
       <use x="150" xlink:href="#SimHei-48"/>
      </g>
     </g>
    </g>
    <g id="text_10">
     <!-- t -->
     <defs>
      <path d="M 42.96875 3.125 
Q 41.015625 2.34375 38.46875 1.75 
Q 35.9375 1.171875 31.640625 1.171875 
Q 24.609375 1.171875 20.3125 5.078125 
Q 16.015625 8.984375 16.015625 16.015625 
L 16.015625 39.453125 
L 2.734375 39.453125 
L 2.734375 45.703125 
L 16.015625 45.703125 
L 16.015625 60.9375 
L 23.828125 60.9375 
L 23.828125 45.703125 
L 39.84375 45.703125 
L 39.84375 39.453125 
L 23.828125 39.453125 
L 23.828125 15.625 
Q 23.828125 12.5 25.390625 10.34375 
Q 26.953125 8.203125 31.25 8.203125 
Q 35.546875 8.203125 38.28125 8.984375 
Q 41.015625 9.765625 42.96875 10.9375 
z
" id="SimHei-116"/>
     </defs>
     <g transform="translate(413.790909 657.8288)scale(0.1 -0.1)">
      <use xlink:href="#SimHei-116"/>
     </g>
    </g>
   </g>
   <g id="matplotlib.axis_2">
    <g id="ytick_1">
     <g id="line2d_19">
      <path clip-path="url(#pe971727c8c)" d="M 172.8 606.985167 
L 659.781818 606.985167 
" style="fill:none;stroke:#b0b0b0;stroke-linecap:square;stroke-width:0.8;"/>
     </g>
     <g id="line2d_20">
      <defs>
       <path d="M 0 0 
L -3.5 0 
" id="m80289ece74" style="stroke:#000000;stroke-width:0.8;"/>
      </defs>
      <g>
       <use style="stroke:#000000;stroke-width:0.8;" x="172.8" xlink:href="#m80289ece74" y="606.985167"/>
      </g>
     </g>
     <g id="text_11">
      <!-- -2.0 -->
      <g transform="translate(145.8 610.422667)scale(0.1 -0.1)">
       <use xlink:href="#SimHei-45"/>
       <use x="50" xlink:href="#SimHei-50"/>
       <use x="100" xlink:href="#SimHei-46"/>
       <use x="150" xlink:href="#SimHei-48"/>
      </g>
     </g>
    </g>
    <g id="ytick_2">
     <g id="line2d_21">
      <path clip-path="url(#pe971727c8c)" d="M 172.8 544.86598 
L 659.781818 544.86598 
" style="fill:none;stroke:#b0b0b0;stroke-linecap:square;stroke-width:0.8;"/>
     </g>
     <g id="line2d_22">
      <g>
       <use style="stroke:#000000;stroke-width:0.8;" x="172.8" xlink:href="#m80289ece74" y="544.86598"/>
      </g>
     </g>
     <g id="text_12">
      <!-- -1.5 -->
      <g transform="translate(145.8 548.30348)scale(0.1 -0.1)">
       <use xlink:href="#SimHei-45"/>
       <use x="50" xlink:href="#SimHei-49"/>
       <use x="100" xlink:href="#SimHei-46"/>
       <use x="150" xlink:href="#SimHei-53"/>
      </g>
     </g>
    </g>
    <g id="ytick_3">
     <g id="line2d_23">
      <path clip-path="url(#pe971727c8c)" d="M 172.8 482.746793 
L 659.781818 482.746793 
" style="fill:none;stroke:#b0b0b0;stroke-linecap:square;stroke-width:0.8;"/>
     </g>
     <g id="line2d_24">
      <g>
       <use style="stroke:#000000;stroke-width:0.8;" x="172.8" xlink:href="#m80289ece74" y="482.746793"/>
      </g>
     </g>
     <g id="text_13">
      <!-- -1.0 -->
      <g transform="translate(145.8 486.184293)scale(0.1 -0.1)">
       <use xlink:href="#SimHei-45"/>
       <use x="50" xlink:href="#SimHei-49"/>
       <use x="100" xlink:href="#SimHei-46"/>
       <use x="150" xlink:href="#SimHei-48"/>
      </g>
     </g>
    </g>
    <g id="ytick_4">
     <g id="line2d_25">
      <path clip-path="url(#pe971727c8c)" d="M 172.8 420.627606 
L 659.781818 420.627606 
" style="fill:none;stroke:#b0b0b0;stroke-linecap:square;stroke-width:0.8;"/>
     </g>
     <g id="line2d_26">
      <g>
       <use style="stroke:#000000;stroke-width:0.8;" x="172.8" xlink:href="#m80289ece74" y="420.627606"/>
      </g>
     </g>
     <g id="text_14">
      <!-- -0.5 -->
      <g transform="translate(145.8 424.065106)scale(0.1 -0.1)">
       <use xlink:href="#SimHei-45"/>
       <use x="50" xlink:href="#SimHei-48"/>
       <use x="100" xlink:href="#SimHei-46"/>
       <use x="150" xlink:href="#SimHei-53"/>
      </g>
     </g>
    </g>
    <g id="ytick_5">
     <g id="line2d_27">
      <path clip-path="url(#pe971727c8c)" d="M 172.8 358.508418 
L 659.781818 358.508418 
" style="fill:none;stroke:#b0b0b0;stroke-linecap:square;stroke-width:0.8;"/>
     </g>
     <g id="line2d_28">
      <g>
       <use style="stroke:#000000;stroke-width:0.8;" x="172.8" xlink:href="#m80289ece74" y="358.508418"/>
      </g>
     </g>
     <g id="text_15">
      <!-- 0.0 -->
      <g transform="translate(150.8 361.945918)scale(0.1 -0.1)">
       <use xlink:href="#SimHei-48"/>
       <use x="50" xlink:href="#SimHei-46"/>
       <use x="100" xlink:href="#SimHei-48"/>
      </g>
     </g>
    </g>
    <g id="ytick_6">
     <g id="line2d_29">
      <path clip-path="url(#pe971727c8c)" d="M 172.8 296.389231 
L 659.781818 296.389231 
" style="fill:none;stroke:#b0b0b0;stroke-linecap:square;stroke-width:0.8;"/>
     </g>
     <g id="line2d_30">
      <g>
       <use style="stroke:#000000;stroke-width:0.8;" x="172.8" xlink:href="#m80289ece74" y="296.389231"/>
      </g>
     </g>
     <g id="text_16">
      <!-- 0.5 -->
      <g transform="translate(150.8 299.826731)scale(0.1 -0.1)">
       <use xlink:href="#SimHei-48"/>
       <use x="50" xlink:href="#SimHei-46"/>
       <use x="100" xlink:href="#SimHei-53"/>
      </g>
     </g>
    </g>
    <g id="ytick_7">
     <g id="line2d_31">
      <path clip-path="url(#pe971727c8c)" d="M 172.8 234.270044 
L 659.781818 234.270044 
" style="fill:none;stroke:#b0b0b0;stroke-linecap:square;stroke-width:0.8;"/>
     </g>
     <g id="line2d_32">
      <g>
       <use style="stroke:#000000;stroke-width:0.8;" x="172.8" xlink:href="#m80289ece74" y="234.270044"/>
      </g>
     </g>
     <g id="text_17">
      <!-- 1.0 -->
      <g transform="translate(150.8 237.707544)scale(0.1 -0.1)">
       <use xlink:href="#SimHei-49"/>
       <use x="50" xlink:href="#SimHei-46"/>
       <use x="100" xlink:href="#SimHei-48"/>
      </g>
     </g>
    </g>
    <g id="ytick_8">
     <g id="line2d_33">
      <path clip-path="url(#pe971727c8c)" d="M 172.8 172.150857 
L 659.781818 172.150857 
" style="fill:none;stroke:#b0b0b0;stroke-linecap:square;stroke-width:0.8;"/>
     </g>
     <g id="line2d_34">
      <g>
       <use style="stroke:#000000;stroke-width:0.8;" x="172.8" xlink:href="#m80289ece74" y="172.150857"/>
      </g>
     </g>
     <g id="text_18">
      <!-- 1.5 -->
      <g transform="translate(150.8 175.588357)scale(0.1 -0.1)">
       <use xlink:href="#SimHei-49"/>
       <use x="50" xlink:href="#SimHei-46"/>
       <use x="100" xlink:href="#SimHei-53"/>
      </g>
     </g>
    </g>
    <g id="ytick_9">
     <g id="line2d_35">
      <path clip-path="url(#pe971727c8c)" d="M 172.8 110.03167 
L 659.781818 110.03167 
" style="fill:none;stroke:#b0b0b0;stroke-linecap:square;stroke-width:0.8;"/>
     </g>
     <g id="line2d_36">
      <g>
       <use style="stroke:#000000;stroke-width:0.8;" x="172.8" xlink:href="#m80289ece74" y="110.03167"/>
      </g>
     </g>
     <g id="text_19">
      <!-- 2.0 -->
      <g transform="translate(150.8 113.46917)scale(0.1 -0.1)">
       <use xlink:href="#SimHei-50"/>
       <use x="50" xlink:href="#SimHei-46"/>
       <use x="100" xlink:href="#SimHei-48"/>
      </g>
     </g>
    </g>
    <g id="text_20">
     <!-- cos(t) -->
     <defs>
      <path d="M 44.53125 19.53125 
Q 44.53125 11.328125 38.859375 6.25 
Q 33.203125 1.171875 24.609375 1.171875 
Q 16.015625 1.171875 9.765625 7.21875 
Q 3.515625 13.28125 3.515625 23.828125 
Q 3.515625 34.375 9.765625 40.421875 
Q 16.015625 46.484375 24.609375 46.484375 
Q 33.203125 46.484375 38.28125 41.984375 
Q 43.359375 37.5 43.359375 31.25 
L 34.765625 31.25 
Q 34.375 35.9375 31.4375 37.6875 
Q 28.515625 39.453125 24.609375 39.453125 
Q 19.921875 39.453125 16.015625 35.734375 
Q 12.109375 32.03125 12.109375 23.828125 
Q 12.109375 15.625 16.015625 11.90625 
Q 19.921875 8.203125 24.609375 8.203125 
Q 29.6875 8.203125 32.8125 10.9375 
Q 35.9375 13.671875 35.9375 19.53125 
z
" id="SimHei-99"/>
      <path d="M 45.703125 23.828125 
Q 45.703125 13.671875 39.453125 7.421875 
Q 33.203125 1.171875 24.609375 1.171875 
Q 16.015625 1.171875 9.765625 7.421875 
Q 3.515625 13.671875 3.515625 23.828125 
Q 3.515625 33.984375 9.765625 40.234375 
Q 16.015625 46.484375 24.609375 46.484375 
Q 33.203125 46.484375 39.453125 40.234375 
Q 45.703125 33.984375 45.703125 23.828125 
z
M 37.109375 23.828125 
Q 37.109375 31.640625 33.203125 35.546875 
Q 29.296875 39.453125 24.609375 39.453125 
Q 19.921875 39.453125 16.015625 35.546875 
Q 12.109375 31.640625 12.109375 23.828125 
Q 12.109375 16.015625 16.015625 12.109375 
Q 19.921875 8.203125 24.609375 8.203125 
Q 29.296875 8.203125 33.203125 12.109375 
Q 37.109375 16.015625 37.109375 23.828125 
z
" id="SimHei-111"/>
      <path d="M 42.96875 14.0625 
Q 42.96875 7.8125 38.078125 4.484375 
Q 33.203125 1.171875 25.78125 1.171875 
Q 16.40625 1.171875 11.328125 4.875 
Q 6.25 8.59375 6.25 15.625 
L 14.0625 15.625 
Q 14.0625 10.9375 17.375 9.375 
Q 20.703125 7.8125 25.390625 7.8125 
Q 30.078125 7.8125 32.421875 9.5625 
Q 34.765625 11.328125 34.765625 14.0625 
Q 34.765625 16.015625 32.8125 17.96875 
Q 30.859375 19.921875 23.046875 21.09375 
Q 14.0625 22.265625 10.734375 25.578125 
Q 7.421875 28.90625 7.421875 34.375 
Q 7.421875 39.0625 11.90625 42.765625 
Q 16.40625 46.484375 25 46.484375 
Q 32.8125 46.484375 37.296875 42.96875 
Q 41.796875 39.453125 41.796875 33.59375 
L 33.984375 33.59375 
Q 33.984375 37.109375 31.4375 38.46875 
Q 28.90625 39.84375 25 39.84375 
Q 19.921875 39.84375 17.765625 38.078125 
Q 15.625 36.328125 15.625 33.984375 
Q 15.625 31.25 17.578125 29.6875 
Q 19.53125 28.125 25.78125 27.34375 
Q 35.9375 25.78125 39.453125 22.453125 
Q 42.96875 19.140625 42.96875 14.0625 
z
" id="SimHei-115"/>
      <path d="M 46.484375 -3.125 
L 42.1875 -7.421875 
Q 32.421875 1.953125 27.53125 12.109375 
Q 22.65625 22.265625 22.65625 35.15625 
Q 22.65625 48.046875 27.53125 58.203125 
Q 32.421875 68.359375 42.1875 78.125 
L 46.484375 73.828125 
Q 37.5 65.234375 33 56.046875 
Q 28.515625 46.875 28.515625 35.15625 
Q 28.515625 23.4375 33 14.25 
Q 37.5 5.078125 46.484375 -3.125 
z
" id="SimHei-40"/>
      <path d="M 26.171875 35.15625 
Q 26.171875 22.265625 21.28125 12.109375 
Q 16.40625 1.953125 6.640625 -7.421875 
L 2.34375 -3.125 
Q 11.328125 5.078125 15.8125 14.25 
Q 20.3125 23.4375 20.3125 35.15625 
Q 20.3125 46.875 15.8125 56.046875 
Q 11.328125 65.234375 2.34375 73.828125 
L 6.640625 78.125 
Q 16.40625 68.359375 21.28125 58.203125 
Q 26.171875 48.046875 26.171875 35.15625 
z
" id="SimHei-41"/>
     </defs>
     <g transform="translate(140.55 373.5096)rotate(-90)scale(0.1 -0.1)">
      <use xlink:href="#SimHei-99"/>
      <use x="50" xlink:href="#SimHei-111"/>
      <use x="100" xlink:href="#SimHei-115"/>
      <use x="150" xlink:href="#SimHei-40"/>
      <use x="200" xlink:href="#SimHei-116"/>
      <use x="250" xlink:href="#SimHei-41"/>
     </g>
    </g>
   </g>
   <g id="line2d_37">
    <path clip-path="url(#pe971727c8c)" d="M 194.935537 566.998184 
L 196.708153 577.143424 
L 198.480768 585.887347 
L 199.81023 591.491613 
L 201.139692 596.255711 
L 202.469153 600.162463 
L 203.798615 603.19778 
L 204.684923 604.731658 
L 205.571231 605.870842 
L 206.457539 606.613507 
L 207.343846 606.958462 
L 208.230154 606.905153 
L 209.116462 606.453667 
L 210.00277 605.604727 
L 210.889078 604.359694 
L 211.775385 602.720564 
L 212.661693 600.689964 
L 213.991155 596.917349 
L 215.320616 592.285 
L 216.650078 586.809624 
L 217.97954 580.510965 
L 219.752155 570.871767 
L 221.524771 559.871448 
L 223.297387 547.580514 
L 225.513156 530.52268 
L 227.728926 511.742696 
L 230.387849 487.199313 
L 233.489926 456.247692 
L 237.035157 418.56502 
L 242.796158 354.497235 
L 249.000313 285.927835 
L 252.545544 248.958792 
L 255.647621 218.880398 
L 258.306545 195.256941 
L 260.522314 177.354467 
L 262.738084 161.265645 
L 264.510699 149.809314 
L 266.283315 139.690616 
L 268.05593 130.974408 
L 269.385392 125.391591 
L 270.714854 120.649422 
L 272.044315 116.765004 
L 273.373777 113.752342 
L 274.260085 112.233706 
L 275.146393 111.109846 
L 276.0327 110.382564 
L 276.919008 110.053026 
L 277.805316 110.121759 
L 278.691624 110.588653 
L 279.577932 111.45296 
L 280.464239 112.713296 
L 281.350547 114.367638 
L 282.236855 116.413336 
L 283.566317 120.20833 
L 284.895778 124.862665 
L 286.22524 130.359555 
L 287.554702 136.67918 
L 289.327317 146.345348 
L 291.099933 157.371352 
L 292.872549 169.686523 
L 295.088318 186.772381 
L 297.304088 205.577603 
L 299.963011 230.147242 
L 303.065088 261.123466 
L 306.610319 298.825727 
L 312.37132 362.904808 
L 318.575475 431.457373 
L 322.120706 468.403709 
L 325.222783 498.454951 
L 327.881706 522.050141 
L 330.097476 539.925844 
L 332.313245 555.985258 
L 334.085861 567.416361 
L 335.858477 577.508491 
L 337.631092 586.196963 
L 338.960554 591.758319 
L 340.290016 596.478546 
L 341.619477 600.340623 
L 342.948939 603.330622 
L 343.835247 604.834012 
L 344.721555 605.942544 
L 345.607862 606.654442 
L 346.49417 606.968564 
L 347.380478 606.884406 
L 348.266786 606.402105 
L 349.153094 605.522432 
L 350.039401 604.246798 
L 350.925709 602.577247 
L 351.812017 600.516457 
L 353.141479 596.699093 
L 354.47094 592.022782 
L 355.800402 586.50439 
L 357.129864 580.163815 
L 358.902479 570.470702 
L 360.675095 559.419039 
L 362.447711 547.079661 
L 364.66348 529.965819 
L 366.879249 511.135404 
L 369.538173 486.539569 
L 372.64025 455.538816 
L 376.185481 417.817056 
L 381.946482 353.726834 
L 388.150637 285.191268 
L 391.695868 248.267728 
L 394.797945 218.24371 
L 397.456868 194.676845 
L 399.672638 176.827954 
L 401.888407 160.797988 
L 403.661023 149.392141 
L 405.433639 139.326602 
L 407.206254 130.665886 
L 408.535716 125.126006 
L 409.865178 120.427731 
L 411.194639 116.588006 
L 412.524101 113.620677 
L 413.410409 112.132536 
L 414.296717 111.039334 
L 415.183024 110.342823 
L 416.069332 110.044118 
L 416.95564 110.1437 
L 417.841948 110.641407 
L 418.728256 111.536444 
L 419.614563 112.827374 
L 420.500871 114.512128 
L 421.387179 116.588006 
L 422.716641 120.427731 
L 424.046102 125.126006 
L 425.375564 130.665886 
L 426.705026 137.027396 
L 428.477641 146.747432 
L 430.250257 157.824727 
L 432.022872 170.188283 
L 434.238642 187.330066 
L 436.454411 206.18563 
L 439.113335 230.807603 
L 442.215412 261.832809 
L 445.760643 299.573977 
L 451.521644 363.675186 
L 457.725799 432.193588 
L 461.27103 469.094244 
L 464.373107 499.090966 
L 467.03203 522.62945 
L 469.2478 540.451485 
L 471.463569 556.451966 
L 473.236185 567.832529 
L 475.008801 577.871451 
L 476.781416 586.50439 
L 478.110878 592.022782 
L 479.44034 596.699093 
L 480.769801 600.516457 
L 481.656109 602.577247 
L 482.542417 604.246798 
L 483.428725 605.522432 
L 484.315032 606.402105 
L 485.20134 606.884406 
L 486.087648 606.968564 
L 486.973956 606.654442 
L 487.860264 605.942544 
L 488.746571 604.834012 
L 489.632879 603.330622 
L 490.519187 601.434784 
L 491.848649 597.862007 
L 493.17811 593.42609 
L 494.507572 588.143031 
L 495.837034 582.03188 
L 497.609649 572.634046 
L 499.382265 561.863798 
L 501.154881 549.790164 
L 503.37065 532.983885 
L 505.586419 514.430815 
L 508.245343 490.124023 
L 511.34742 459.394946 
L 514.892651 421.890849 
L 520.210498 362.904808 
L 527.30096 284.455407 
L 530.846192 247.577724 
L 533.948269 217.608371 
L 536.607192 194.098323 
L 538.822962 176.303188 
L 541.038731 160.332231 
L 542.811347 148.976979 
L 544.583962 138.964696 
L 546.356578 130.359555 
L 547.68604 124.862665 
L 549.015501 120.20833 
L 550.344963 116.413336 
L 551.231271 114.367638 
L 552.117579 112.713296 
L 553.003887 111.45296 
L 553.890194 110.588653 
L 554.776502 110.121759 
L 555.66281 110.053026 
L 556.549118 110.382564 
L 557.435426 111.109846 
L 558.321733 112.233706 
L 559.208041 113.752342 
L 560.094349 115.663319 
L 561.423811 119.258555 
L 562.753272 123.716555 
L 564.082734 129.021245 
L 565.412196 135.153494 
L 567.184811 144.578501 
L 568.957427 155.374669 
L 570.730042 167.4728 
L 572.945812 184.307467 
L 575.161581 202.886176 
L 577.820505 227.219747 
L 580.922582 257.974088 
L 584.467813 295.498579 
L 589.78566 354.497235 
L 596.876122 432.929094 
L 600.421354 469.783715 
L 603.523431 499.725628 
L 606.182354 523.207182 
L 608.398124 540.975375 
L 610.613893 556.91677 
L 612.386509 568.246684 
L 614.159124 578.232302 
L 615.93174 586.809624 
L 617.261202 592.285 
L 618.590663 596.917349 
L 619.920125 600.689964 
L 620.806433 602.720564 
L 621.692741 604.359694 
L 622.579048 605.604727 
L 623.465356 606.453667 
L 624.351664 606.905153 
L 625.237972 606.958462 
L 626.12428 606.613507 
L 627.010587 605.870842 
L 627.896895 604.731658 
L 628.783203 603.19778 
L 629.669511 601.271667 
L 630.998973 597.653982 
L 632.328434 593.173909 
L 633.657896 587.847601 
L 634.987358 581.694268 
L 636.759973 572.242111 
L 637.646281 566.998184 
L 637.646281 566.998184 
" style="fill:none;stroke:#000000;stroke-linecap:square;stroke-width:1.5;"/>
   </g>
   <g id="patch_3">
    <path d="M 172.8 631.8288 
L 172.8 85.1904 
" style="fill:none;stroke:#000000;stroke-linecap:square;stroke-linejoin:miter;stroke-width:0.8;"/>
   </g>
   <g id="patch_4">
    <path d="M 659.781818 631.8288 
L 659.781818 85.1904 
" style="fill:none;stroke:#000000;stroke-linecap:square;stroke-linejoin:miter;stroke-width:0.8;"/>
   </g>
   <g id="patch_5">
    <path d="M 172.8 631.8288 
L 659.781818 631.8288 
" style="fill:none;stroke:#000000;stroke-linecap:square;stroke-linejoin:miter;stroke-width:0.8;"/>
   </g>
   <g id="patch_6">
    <path d="M 172.8 85.1904 
L 659.781818 85.1904 
" style="fill:none;stroke:#000000;stroke-linecap:square;stroke-linejoin:miter;stroke-width:0.8;"/>
   </g>
   <g id="text_21">
    <!-- cos(t) -->
    <g transform="translate(398.290909 79.1904)scale(0.12 -0.12)">
     <use xlink:href="#SimHei-99"/>
     <use x="50" xlink:href="#SimHei-111"/>
     <use x="100" xlink:href="#SimHei-115"/>
     <use x="150" xlink:href="#SimHei-40"/>
     <use x="200" xlink:href="#SimHei-116"/>
     <use x="250" xlink:href="#SimHei-41"/>
    </g>
   </g>
  </g>
  <g id="axes_2">
   <g id="patch_7">
    <path d="M 757.178182 631.8288 
L 1244.16 631.8288 
L 1244.16 85.1904 
L 757.178182 85.1904 
z
" style="fill:#ffffff;"/>
   </g>
   <g id="matplotlib.axis_3">
    <g id="xtick_10">
     <g id="line2d_38">
      <path clip-path="url(#p6bb518595a)" d="M 779.313719 631.8288 
L 779.313719 85.1904 
" style="fill:none;stroke:#b0b0b0;stroke-linecap:square;stroke-width:0.8;"/>
     </g>
     <g id="line2d_39">
      <g>
       <use style="stroke:#000000;stroke-width:0.8;" x="779.313719" xlink:href="#md4b79b33f2" y="631.8288"/>
      </g>
     </g>
     <g id="text_22">
      <!-- -20 -->
      <g transform="translate(771.813719 645.7038)scale(0.1 -0.1)">
       <use xlink:href="#SimHei-45"/>
       <use x="50" xlink:href="#SimHei-50"/>
       <use x="100" xlink:href="#SimHei-48"/>
      </g>
     </g>
    </g>
    <g id="xtick_11">
     <g id="line2d_40">
      <path clip-path="url(#p6bb518595a)" d="M 834.652562 631.8288 
L 834.652562 85.1904 
" style="fill:none;stroke:#b0b0b0;stroke-linecap:square;stroke-width:0.8;"/>
     </g>
     <g id="line2d_41">
      <g>
       <use style="stroke:#000000;stroke-width:0.8;" x="834.652562" xlink:href="#md4b79b33f2" y="631.8288"/>
      </g>
     </g>
     <g id="text_23">
      <!-- -15 -->
      <g transform="translate(827.152562 645.7038)scale(0.1 -0.1)">
       <use xlink:href="#SimHei-45"/>
       <use x="50" xlink:href="#SimHei-49"/>
       <use x="100" xlink:href="#SimHei-53"/>
      </g>
     </g>
    </g>
    <g id="xtick_12">
     <g id="line2d_42">
      <path clip-path="url(#p6bb518595a)" d="M 889.991405 631.8288 
L 889.991405 85.1904 
" style="fill:none;stroke:#b0b0b0;stroke-linecap:square;stroke-width:0.8;"/>
     </g>
     <g id="line2d_43">
      <g>
       <use style="stroke:#000000;stroke-width:0.8;" x="889.991405" xlink:href="#md4b79b33f2" y="631.8288"/>
      </g>
     </g>
     <g id="text_24">
      <!-- -10 -->
      <g transform="translate(882.491405 645.7038)scale(0.1 -0.1)">
       <use xlink:href="#SimHei-45"/>
       <use x="50" xlink:href="#SimHei-49"/>
       <use x="100" xlink:href="#SimHei-48"/>
      </g>
     </g>
    </g>
    <g id="xtick_13">
     <g id="line2d_44">
      <path clip-path="url(#p6bb518595a)" d="M 945.330248 631.8288 
L 945.330248 85.1904 
" style="fill:none;stroke:#b0b0b0;stroke-linecap:square;stroke-width:0.8;"/>
     </g>
     <g id="line2d_45">
      <g>
       <use style="stroke:#000000;stroke-width:0.8;" x="945.330248" xlink:href="#md4b79b33f2" y="631.8288"/>
      </g>
     </g>
     <g id="text_25">
      <!-- -5 -->
      <g transform="translate(940.330248 645.7038)scale(0.1 -0.1)">
       <use xlink:href="#SimHei-45"/>
       <use x="50" xlink:href="#SimHei-53"/>
      </g>
     </g>
    </g>
    <g id="xtick_14">
     <g id="line2d_46">
      <path clip-path="url(#p6bb518595a)" d="M 1000.669091 631.8288 
L 1000.669091 85.1904 
" style="fill:none;stroke:#b0b0b0;stroke-linecap:square;stroke-width:0.8;"/>
     </g>
     <g id="line2d_47">
      <g>
       <use style="stroke:#000000;stroke-width:0.8;" x="1000.669091" xlink:href="#md4b79b33f2" y="631.8288"/>
      </g>
     </g>
     <g id="text_26">
      <!-- 0 -->
      <g transform="translate(998.169091 645.7038)scale(0.1 -0.1)">
       <use xlink:href="#SimHei-48"/>
      </g>
     </g>
    </g>
    <g id="xtick_15">
     <g id="line2d_48">
      <path clip-path="url(#p6bb518595a)" d="M 1056.007934 631.8288 
L 1056.007934 85.1904 
" style="fill:none;stroke:#b0b0b0;stroke-linecap:square;stroke-width:0.8;"/>
     </g>
     <g id="line2d_49">
      <g>
       <use style="stroke:#000000;stroke-width:0.8;" x="1056.007934" xlink:href="#md4b79b33f2" y="631.8288"/>
      </g>
     </g>
     <g id="text_27">
      <!-- 5 -->
      <g transform="translate(1053.507934 645.7038)scale(0.1 -0.1)">
       <use xlink:href="#SimHei-53"/>
      </g>
     </g>
    </g>
    <g id="xtick_16">
     <g id="line2d_50">
      <path clip-path="url(#p6bb518595a)" d="M 1111.346777 631.8288 
L 1111.346777 85.1904 
" style="fill:none;stroke:#b0b0b0;stroke-linecap:square;stroke-width:0.8;"/>
     </g>
     <g id="line2d_51">
      <g>
       <use style="stroke:#000000;stroke-width:0.8;" x="1111.346777" xlink:href="#md4b79b33f2" y="631.8288"/>
      </g>
     </g>
     <g id="text_28">
      <!-- 10 -->
      <g transform="translate(1106.346777 645.7038)scale(0.1 -0.1)">
       <use xlink:href="#SimHei-49"/>
       <use x="50" xlink:href="#SimHei-48"/>
      </g>
     </g>
    </g>
    <g id="xtick_17">
     <g id="line2d_52">
      <path clip-path="url(#p6bb518595a)" d="M 1166.68562 631.8288 
L 1166.68562 85.1904 
" style="fill:none;stroke:#b0b0b0;stroke-linecap:square;stroke-width:0.8;"/>
     </g>
     <g id="line2d_53">
      <g>
       <use style="stroke:#000000;stroke-width:0.8;" x="1166.68562" xlink:href="#md4b79b33f2" y="631.8288"/>
      </g>
     </g>
     <g id="text_29">
      <!-- 15 -->
      <g transform="translate(1161.68562 645.7038)scale(0.1 -0.1)">
       <use xlink:href="#SimHei-49"/>
       <use x="50" xlink:href="#SimHei-53"/>
      </g>
     </g>
    </g>
    <g id="xtick_18">
     <g id="line2d_54">
      <path clip-path="url(#p6bb518595a)" d="M 1222.024463 631.8288 
L 1222.024463 85.1904 
" style="fill:none;stroke:#b0b0b0;stroke-linecap:square;stroke-width:0.8;"/>
     </g>
     <g id="line2d_55">
      <g>
       <use style="stroke:#000000;stroke-width:0.8;" x="1222.024463" xlink:href="#md4b79b33f2" y="631.8288"/>
      </g>
     </g>
     <g id="text_30">
      <!-- 20 -->
      <g transform="translate(1217.024463 645.7038)scale(0.1 -0.1)">
       <use xlink:href="#SimHei-50"/>
       <use x="50" xlink:href="#SimHei-48"/>
      </g>
     </g>
    </g>
    <g id="text_31">
     <!-- w -->
     <defs>
      <path d="M 48.046875 45.703125 
L 38.28125 1.171875 
L 30.859375 1.171875 
L 24.609375 35.15625 
L 23.828125 35.15625 
L 17.578125 1.171875 
L 10.15625 1.171875 
L 0.390625 45.703125 
L 8.59375 45.703125 
L 13.671875 16.40625 
L 14.453125 16.40625 
L 19.921875 45.703125 
L 28.515625 45.703125 
L 33.984375 16.40625 
L 34.765625 16.40625 
L 39.84375 45.703125 
z
" id="SimHei-119"/>
     </defs>
     <g transform="translate(998.169091 657.8288)scale(0.1 -0.1)">
      <use xlink:href="#SimHei-119"/>
     </g>
    </g>
   </g>
   <g id="matplotlib.axis_4">
    <g id="ytick_10">
     <g id="line2d_56">
      <path clip-path="url(#p6bb518595a)" d="M 757.178182 606.9816 
L 1244.16 606.9816 
" style="fill:none;stroke:#b0b0b0;stroke-linecap:square;stroke-width:0.8;"/>
     </g>
     <g id="line2d_57">
      <g>
       <use style="stroke:#000000;stroke-width:0.8;" x="757.178182" xlink:href="#m80289ece74" y="606.9816"/>
      </g>
     </g>
     <g id="text_32">
      <!-- -4 -->
      <defs>
       <path d="M 31.25 17.1875 
L 1.171875 17.1875 
L 1.171875 23.828125 
L 32.8125 69.53125 
L 38.671875 69.53125 
L 38.671875 23.828125 
L 48.046875 23.828125 
L 48.046875 17.1875 
L 38.671875 17.1875 
L 38.671875 2.34375 
L 31.25 2.34375 
z
M 31.25 23.828125 
L 31.25 54.6875 
L 9.375 23.828125 
z
" id="SimHei-52"/>
      </defs>
      <g transform="translate(740.178182 610.4191)scale(0.1 -0.1)">
       <use xlink:href="#SimHei-45"/>
       <use x="50" xlink:href="#SimHei-52"/>
      </g>
     </g>
    </g>
    <g id="ytick_11">
     <g id="line2d_58">
      <path clip-path="url(#p6bb518595a)" d="M 757.178182 510.329836 
L 1244.16 510.329836 
" style="fill:none;stroke:#b0b0b0;stroke-linecap:square;stroke-width:0.8;"/>
     </g>
     <g id="line2d_59">
      <g>
       <use style="stroke:#000000;stroke-width:0.8;" x="757.178182" xlink:href="#m80289ece74" y="510.329836"/>
      </g>
     </g>
     <g id="text_33">
      <!-- -2 -->
      <g transform="translate(740.178182 513.767336)scale(0.1 -0.1)">
       <use xlink:href="#SimHei-45"/>
       <use x="50" xlink:href="#SimHei-50"/>
      </g>
     </g>
    </g>
    <g id="ytick_12">
     <g id="line2d_60">
      <path clip-path="url(#p6bb518595a)" d="M 757.178182 413.678072 
L 1244.16 413.678072 
" style="fill:none;stroke:#b0b0b0;stroke-linecap:square;stroke-width:0.8;"/>
     </g>
     <g id="line2d_61">
      <g>
       <use style="stroke:#000000;stroke-width:0.8;" x="757.178182" xlink:href="#m80289ece74" y="413.678072"/>
      </g>
     </g>
     <g id="text_34">
      <!-- 0 -->
      <g transform="translate(745.178182 417.115572)scale(0.1 -0.1)">
       <use xlink:href="#SimHei-48"/>
      </g>
     </g>
    </g>
    <g id="ytick_13">
     <g id="line2d_62">
      <path clip-path="url(#p6bb518595a)" d="M 757.178182 317.026308 
L 1244.16 317.026308 
" style="fill:none;stroke:#b0b0b0;stroke-linecap:square;stroke-width:0.8;"/>
     </g>
     <g id="line2d_63">
      <g>
       <use style="stroke:#000000;stroke-width:0.8;" x="757.178182" xlink:href="#m80289ece74" y="317.026308"/>
      </g>
     </g>
     <g id="text_35">
      <!-- 2 -->
      <g transform="translate(745.178182 320.463808)scale(0.1 -0.1)">
       <use xlink:href="#SimHei-50"/>
      </g>
     </g>
    </g>
    <g id="ytick_14">
     <g id="line2d_64">
      <path clip-path="url(#p6bb518595a)" d="M 757.178182 220.374544 
L 1244.16 220.374544 
" style="fill:none;stroke:#b0b0b0;stroke-linecap:square;stroke-width:0.8;"/>
     </g>
     <g id="line2d_65">
      <g>
       <use style="stroke:#000000;stroke-width:0.8;" x="757.178182" xlink:href="#m80289ece74" y="220.374544"/>
      </g>
     </g>
     <g id="text_36">
      <!-- 4 -->
      <g transform="translate(745.178182 223.812044)scale(0.1 -0.1)">
       <use xlink:href="#SimHei-52"/>
      </g>
     </g>
    </g>
    <g id="ytick_15">
     <g id="line2d_66">
      <path clip-path="url(#p6bb518595a)" d="M 757.178182 123.72278 
L 1244.16 123.72278 
" style="fill:none;stroke:#b0b0b0;stroke-linecap:square;stroke-width:0.8;"/>
     </g>
     <g id="line2d_67">
      <g>
       <use style="stroke:#000000;stroke-width:0.8;" x="757.178182" xlink:href="#m80289ece74" y="123.72278"/>
      </g>
     </g>
     <g id="text_37">
      <!-- 6 -->
      <defs>
       <path d="M 3.515625 19.53125 
Q 4.296875 30.859375 6.046875 34.765625 
Q 7.8125 38.671875 11.328125 44.53125 
L 27.34375 69.53125 
L 36.328125 69.53125 
L 19.921875 43.75 
Q 30.46875 46.484375 36.71875 42.96875 
Q 42.96875 39.453125 45.109375 34.953125 
Q 47.265625 30.46875 47.453125 25.1875 
Q 47.65625 19.921875 45.890625 14.84375 
Q 44.140625 9.765625 39.640625 5.65625 
Q 35.15625 1.5625 27.140625 1.171875 
Q 19.140625 0.78125 13.46875 4.09375 
Q 7.8125 7.421875 5.65625 13.46875 
Q 3.515625 19.53125 4.296875 30.859375 
z
M 12.5 16.015625 
Q 19.53125 8.59375 25.390625 8.203125 
Q 31.25 7.8125 35.15625 12.109375 
Q 39.0625 16.40625 39.0625 24.609375 
Q 39.0625 32.8125 34.171875 35.9375 
Q 29.296875 39.0625 23.234375 38.28125 
Q 17.1875 37.5 14.453125 32.421875 
Q 11.71875 27.34375 12.109375 21.671875 
Q 12.5 16.015625 19.53125 8.59375 
z
" id="SimHei-54"/>
      </defs>
      <g transform="translate(745.178182 127.16028)scale(0.1 -0.1)">
       <use xlink:href="#SimHei-54"/>
      </g>
     </g>
    </g>
    <g id="text_38">
     <!-- F(w) -->
     <defs>
      <path d="M 45.703125 61.328125 
L 13.671875 61.328125 
L 13.671875 39.453125 
L 37.890625 39.453125 
L 37.890625 32.03125 
L 13.671875 32.03125 
L 13.671875 1.953125 
L 4.6875 1.953125 
L 4.6875 68.75 
L 45.703125 68.75 
z
" id="SimHei-70"/>
     </defs>
     <g transform="translate(734.928182 368.5096)rotate(-90)scale(0.1 -0.1)">
      <use xlink:href="#SimHei-70"/>
      <use x="50" xlink:href="#SimHei-40"/>
      <use x="100" xlink:href="#SimHei-119"/>
      <use x="150" xlink:href="#SimHei-41"/>
     </g>
    </g>
   </g>
   <g id="line2d_68">
    <path clip-path="url(#p6bb518595a)" d="M 779.313719 413.678072 
L 779.313719 413.678072 
" style="fill:none;stroke:#1f77b4;stroke-linecap:square;stroke-width:1.5;"/>
   </g>
   <g id="line2d_69">
    <path clip-path="url(#p6bb518595a)" d="M 790.381488 413.678072 
L 790.381488 413.678072 
" style="fill:none;stroke:#1f77b4;stroke-linecap:square;stroke-width:1.5;"/>
   </g>
   <g id="line2d_70">
    <path clip-path="url(#p6bb518595a)" d="M 801.449256 413.678072 
L 801.449256 413.678072 
" style="fill:none;stroke:#1f77b4;stroke-linecap:square;stroke-width:1.5;"/>
   </g>
   <g id="line2d_71">
    <path clip-path="url(#p6bb518595a)" d="M 812.517025 413.678072 
L 812.517025 413.678072 
" style="fill:none;stroke:#1f77b4;stroke-linecap:square;stroke-width:1.5;"/>
   </g>
   <g id="line2d_72">
    <path clip-path="url(#p6bb518595a)" d="M 823.584793 413.678072 
L 823.584793 413.678072 
" style="fill:none;stroke:#1f77b4;stroke-linecap:square;stroke-width:1.5;"/>
   </g>
   <g id="line2d_73">
    <path clip-path="url(#p6bb518595a)" d="M 834.652562 413.678072 
L 834.652562 413.678072 
" style="fill:none;stroke:#1f77b4;stroke-linecap:square;stroke-width:1.5;"/>
   </g>
   <g id="line2d_74">
    <path clip-path="url(#p6bb518595a)" d="M 845.720331 413.678072 
L 845.720331 413.678072 
" style="fill:none;stroke:#1f77b4;stroke-linecap:square;stroke-width:1.5;"/>
   </g>
   <g id="line2d_75">
    <path clip-path="url(#p6bb518595a)" d="M 856.788099 413.678072 
L 856.788099 413.678072 
" style="fill:none;stroke:#1f77b4;stroke-linecap:square;stroke-width:1.5;"/>
   </g>
   <g id="line2d_76">
    <path clip-path="url(#p6bb518595a)" d="M 867.855868 413.678072 
L 867.855868 413.678072 
" style="fill:none;stroke:#1f77b4;stroke-linecap:square;stroke-width:1.5;"/>
   </g>
   <g id="line2d_77">
    <path clip-path="url(#p6bb518595a)" d="M 878.923636 413.678072 
L 878.923636 413.678072 
" style="fill:none;stroke:#1f77b4;stroke-linecap:square;stroke-width:1.5;"/>
   </g>
   <g id="line2d_78">
    <path clip-path="url(#p6bb518595a)" d="M 889.991405 413.678072 
L 889.991405 413.678072 
" style="fill:none;stroke:#1f77b4;stroke-linecap:square;stroke-width:1.5;"/>
   </g>
   <g id="line2d_79">
    <path clip-path="url(#p6bb518595a)" d="M 901.059174 413.678072 
L 901.059174 413.678072 
" style="fill:none;stroke:#1f77b4;stroke-linecap:square;stroke-width:1.5;"/>
   </g>
   <g id="line2d_80">
    <path clip-path="url(#p6bb518595a)" d="M 912.126942 413.678072 
L 912.126942 413.678072 
" style="fill:none;stroke:#1f77b4;stroke-linecap:square;stroke-width:1.5;"/>
   </g>
   <g id="line2d_81">
    <path clip-path="url(#p6bb518595a)" d="M 923.194711 413.678072 
L 923.194711 413.678072 
" style="fill:none;stroke:#1f77b4;stroke-linecap:square;stroke-width:1.5;"/>
   </g>
   <g id="line2d_82">
    <path clip-path="url(#p6bb518595a)" d="M 934.262479 413.678072 
L 934.262479 413.678072 
" style="fill:none;stroke:#1f77b4;stroke-linecap:square;stroke-width:1.5;"/>
   </g>
   <g id="line2d_83">
    <path clip-path="url(#p6bb518595a)" d="M 945.330248 413.678072 
L 945.330248 413.678072 
" style="fill:none;stroke:#1f77b4;stroke-linecap:square;stroke-width:1.5;"/>
   </g>
   <g id="line2d_84">
    <path clip-path="url(#p6bb518595a)" d="M 956.398017 413.678072 
L 956.398017 413.678072 
" style="fill:none;stroke:#1f77b4;stroke-linecap:square;stroke-width:1.5;"/>
   </g>
   <g id="line2d_85">
    <path clip-path="url(#p6bb518595a)" d="M 967.465785 413.678072 
L 967.465785 413.678072 
" style="fill:none;stroke:#1f77b4;stroke-linecap:square;stroke-width:1.5;"/>
   </g>
   <g id="line2d_86">
    <path clip-path="url(#p6bb518595a)" d="M 978.533554 413.678072 
L 978.533554 413.678072 
" style="fill:none;stroke:#1f77b4;stroke-linecap:square;stroke-width:1.5;"/>
   </g>
   <g id="line2d_87">
    <path clip-path="url(#p6bb518595a)" d="M 989.601322 413.678072 
L 989.601322 110.0376 
" style="fill:none;stroke:#1f77b4;stroke-linecap:square;stroke-width:1.5;"/>
   </g>
   <g id="line2d_88">
    <path clip-path="url(#p6bb518595a)" d="M 1000.669091 413.678072 
L 1000.669091 413.678072 
" style="fill:none;stroke:#1f77b4;stroke-linecap:square;stroke-width:1.5;"/>
   </g>
   <g id="line2d_89">
    <path clip-path="url(#p6bb518595a)" d="M 1011.73686 413.678072 
L 1011.73686 110.0376 
" style="fill:none;stroke:#1f77b4;stroke-linecap:square;stroke-width:1.5;"/>
   </g>
   <g id="line2d_90">
    <path clip-path="url(#p6bb518595a)" d="M 1022.804628 413.678072 
L 1022.804628 413.678072 
" style="fill:none;stroke:#1f77b4;stroke-linecap:square;stroke-width:1.5;"/>
   </g>
   <g id="line2d_91">
    <path clip-path="url(#p6bb518595a)" d="M 1033.872397 413.678072 
L 1033.872397 413.678072 
" style="fill:none;stroke:#1f77b4;stroke-linecap:square;stroke-width:1.5;"/>
   </g>
   <g id="line2d_92">
    <path clip-path="url(#p6bb518595a)" d="M 1044.940165 413.678072 
L 1044.940165 413.678072 
" style="fill:none;stroke:#1f77b4;stroke-linecap:square;stroke-width:1.5;"/>
   </g>
   <g id="line2d_93">
    <path clip-path="url(#p6bb518595a)" d="M 1056.007934 413.678072 
L 1056.007934 413.678072 
" style="fill:none;stroke:#1f77b4;stroke-linecap:square;stroke-width:1.5;"/>
   </g>
   <g id="line2d_94">
    <path clip-path="url(#p6bb518595a)" d="M 1067.075702 413.678072 
L 1067.075702 413.678072 
" style="fill:none;stroke:#1f77b4;stroke-linecap:square;stroke-width:1.5;"/>
   </g>
   <g id="line2d_95">
    <path clip-path="url(#p6bb518595a)" d="M 1078.143471 413.678072 
L 1078.143471 413.678072 
" style="fill:none;stroke:#1f77b4;stroke-linecap:square;stroke-width:1.5;"/>
   </g>
   <g id="line2d_96">
    <path clip-path="url(#p6bb518595a)" d="M 1089.21124 413.678072 
L 1089.21124 413.678072 
" style="fill:none;stroke:#1f77b4;stroke-linecap:square;stroke-width:1.5;"/>
   </g>
   <g id="line2d_97">
    <path clip-path="url(#p6bb518595a)" d="M 1100.279008 413.678072 
L 1100.279008 413.678072 
" style="fill:none;stroke:#1f77b4;stroke-linecap:square;stroke-width:1.5;"/>
   </g>
   <g id="line2d_98">
    <path clip-path="url(#p6bb518595a)" d="M 1111.346777 413.678072 
L 1111.346777 413.678072 
" style="fill:none;stroke:#1f77b4;stroke-linecap:square;stroke-width:1.5;"/>
   </g>
   <g id="line2d_99">
    <path clip-path="url(#p6bb518595a)" d="M 1122.414545 413.678072 
L 1122.414545 413.678072 
" style="fill:none;stroke:#1f77b4;stroke-linecap:square;stroke-width:1.5;"/>
   </g>
   <g id="line2d_100">
    <path clip-path="url(#p6bb518595a)" d="M 1133.482314 413.678072 
L 1133.482314 413.678072 
" style="fill:none;stroke:#1f77b4;stroke-linecap:square;stroke-width:1.5;"/>
   </g>
   <g id="line2d_101">
    <path clip-path="url(#p6bb518595a)" d="M 1144.550083 413.678072 
L 1144.550083 413.678072 
" style="fill:none;stroke:#1f77b4;stroke-linecap:square;stroke-width:1.5;"/>
   </g>
   <g id="line2d_102">
    <path clip-path="url(#p6bb518595a)" d="M 1155.617851 413.678072 
L 1155.617851 413.678072 
" style="fill:none;stroke:#1f77b4;stroke-linecap:square;stroke-width:1.5;"/>
   </g>
   <g id="line2d_103">
    <path clip-path="url(#p6bb518595a)" d="M 1166.68562 413.678072 
L 1166.68562 413.678072 
" style="fill:none;stroke:#1f77b4;stroke-linecap:square;stroke-width:1.5;"/>
   </g>
   <g id="line2d_104">
    <path clip-path="url(#p6bb518595a)" d="M 1177.753388 413.678072 
L 1177.753388 413.678072 
" style="fill:none;stroke:#1f77b4;stroke-linecap:square;stroke-width:1.5;"/>
   </g>
   <g id="line2d_105">
    <path clip-path="url(#p6bb518595a)" d="M 1188.821157 413.678072 
L 1188.821157 413.678072 
" style="fill:none;stroke:#1f77b4;stroke-linecap:square;stroke-width:1.5;"/>
   </g>
   <g id="line2d_106">
    <path clip-path="url(#p6bb518595a)" d="M 1199.888926 413.678072 
L 1199.888926 413.678072 
" style="fill:none;stroke:#1f77b4;stroke-linecap:square;stroke-width:1.5;"/>
   </g>
   <g id="line2d_107">
    <path clip-path="url(#p6bb518595a)" d="M 1210.956694 413.678072 
L 1210.956694 413.678072 
" style="fill:none;stroke:#1f77b4;stroke-linecap:square;stroke-width:1.5;"/>
   </g>
   <g id="line2d_108">
    <path clip-path="url(#p6bb518595a)" d="M 1222.024463 413.678072 
L 1222.024463 413.678072 
" style="fill:none;stroke:#1f77b4;stroke-linecap:square;stroke-width:1.5;"/>
   </g>
   <g id="line2d_109">
    <defs>
     <path d="M 0 -3 
L -3 3 
L 3 3 
z
" id="m8310821c0a" style="stroke:#1f77b4;stroke-linejoin:miter;"/>
    </defs>
    <g clip-path="url(#p6bb518595a)">
     <use style="fill:#1f77b4;stroke:#1f77b4;stroke-linejoin:miter;" x="779.313719" xlink:href="#m8310821c0a" y="413.678072"/>
     <use style="fill:#1f77b4;stroke:#1f77b4;stroke-linejoin:miter;" x="790.381488" xlink:href="#m8310821c0a" y="413.678072"/>
     <use style="fill:#1f77b4;stroke:#1f77b4;stroke-linejoin:miter;" x="801.449256" xlink:href="#m8310821c0a" y="413.678072"/>
     <use style="fill:#1f77b4;stroke:#1f77b4;stroke-linejoin:miter;" x="812.517025" xlink:href="#m8310821c0a" y="413.678072"/>
     <use style="fill:#1f77b4;stroke:#1f77b4;stroke-linejoin:miter;" x="823.584793" xlink:href="#m8310821c0a" y="413.678072"/>
     <use style="fill:#1f77b4;stroke:#1f77b4;stroke-linejoin:miter;" x="834.652562" xlink:href="#m8310821c0a" y="413.678072"/>
     <use style="fill:#1f77b4;stroke:#1f77b4;stroke-linejoin:miter;" x="845.720331" xlink:href="#m8310821c0a" y="413.678072"/>
     <use style="fill:#1f77b4;stroke:#1f77b4;stroke-linejoin:miter;" x="856.788099" xlink:href="#m8310821c0a" y="413.678072"/>
     <use style="fill:#1f77b4;stroke:#1f77b4;stroke-linejoin:miter;" x="867.855868" xlink:href="#m8310821c0a" y="413.678072"/>
     <use style="fill:#1f77b4;stroke:#1f77b4;stroke-linejoin:miter;" x="878.923636" xlink:href="#m8310821c0a" y="413.678072"/>
     <use style="fill:#1f77b4;stroke:#1f77b4;stroke-linejoin:miter;" x="889.991405" xlink:href="#m8310821c0a" y="413.678072"/>
     <use style="fill:#1f77b4;stroke:#1f77b4;stroke-linejoin:miter;" x="901.059174" xlink:href="#m8310821c0a" y="413.678072"/>
     <use style="fill:#1f77b4;stroke:#1f77b4;stroke-linejoin:miter;" x="912.126942" xlink:href="#m8310821c0a" y="413.678072"/>
     <use style="fill:#1f77b4;stroke:#1f77b4;stroke-linejoin:miter;" x="923.194711" xlink:href="#m8310821c0a" y="413.678072"/>
     <use style="fill:#1f77b4;stroke:#1f77b4;stroke-linejoin:miter;" x="934.262479" xlink:href="#m8310821c0a" y="413.678072"/>
     <use style="fill:#1f77b4;stroke:#1f77b4;stroke-linejoin:miter;" x="945.330248" xlink:href="#m8310821c0a" y="413.678072"/>
     <use style="fill:#1f77b4;stroke:#1f77b4;stroke-linejoin:miter;" x="956.398017" xlink:href="#m8310821c0a" y="413.678072"/>
     <use style="fill:#1f77b4;stroke:#1f77b4;stroke-linejoin:miter;" x="967.465785" xlink:href="#m8310821c0a" y="413.678072"/>
     <use style="fill:#1f77b4;stroke:#1f77b4;stroke-linejoin:miter;" x="978.533554" xlink:href="#m8310821c0a" y="413.678072"/>
     <use style="fill:#1f77b4;stroke:#1f77b4;stroke-linejoin:miter;" x="989.601322" xlink:href="#m8310821c0a" y="110.0376"/>
     <use style="fill:#1f77b4;stroke:#1f77b4;stroke-linejoin:miter;" x="1000.669091" xlink:href="#m8310821c0a" y="413.678072"/>
     <use style="fill:#1f77b4;stroke:#1f77b4;stroke-linejoin:miter;" x="1011.73686" xlink:href="#m8310821c0a" y="110.0376"/>
     <use style="fill:#1f77b4;stroke:#1f77b4;stroke-linejoin:miter;" x="1022.804628" xlink:href="#m8310821c0a" y="413.678072"/>
     <use style="fill:#1f77b4;stroke:#1f77b4;stroke-linejoin:miter;" x="1033.872397" xlink:href="#m8310821c0a" y="413.678072"/>
     <use style="fill:#1f77b4;stroke:#1f77b4;stroke-linejoin:miter;" x="1044.940165" xlink:href="#m8310821c0a" y="413.678072"/>
     <use style="fill:#1f77b4;stroke:#1f77b4;stroke-linejoin:miter;" x="1056.007934" xlink:href="#m8310821c0a" y="413.678072"/>
     <use style="fill:#1f77b4;stroke:#1f77b4;stroke-linejoin:miter;" x="1067.075702" xlink:href="#m8310821c0a" y="413.678072"/>
     <use style="fill:#1f77b4;stroke:#1f77b4;stroke-linejoin:miter;" x="1078.143471" xlink:href="#m8310821c0a" y="413.678072"/>
     <use style="fill:#1f77b4;stroke:#1f77b4;stroke-linejoin:miter;" x="1089.21124" xlink:href="#m8310821c0a" y="413.678072"/>
     <use style="fill:#1f77b4;stroke:#1f77b4;stroke-linejoin:miter;" x="1100.279008" xlink:href="#m8310821c0a" y="413.678072"/>
     <use style="fill:#1f77b4;stroke:#1f77b4;stroke-linejoin:miter;" x="1111.346777" xlink:href="#m8310821c0a" y="413.678072"/>
     <use style="fill:#1f77b4;stroke:#1f77b4;stroke-linejoin:miter;" x="1122.414545" xlink:href="#m8310821c0a" y="413.678072"/>
     <use style="fill:#1f77b4;stroke:#1f77b4;stroke-linejoin:miter;" x="1133.482314" xlink:href="#m8310821c0a" y="413.678072"/>
     <use style="fill:#1f77b4;stroke:#1f77b4;stroke-linejoin:miter;" x="1144.550083" xlink:href="#m8310821c0a" y="413.678072"/>
     <use style="fill:#1f77b4;stroke:#1f77b4;stroke-linejoin:miter;" x="1155.617851" xlink:href="#m8310821c0a" y="413.678072"/>
     <use style="fill:#1f77b4;stroke:#1f77b4;stroke-linejoin:miter;" x="1166.68562" xlink:href="#m8310821c0a" y="413.678072"/>
     <use style="fill:#1f77b4;stroke:#1f77b4;stroke-linejoin:miter;" x="1177.753388" xlink:href="#m8310821c0a" y="413.678072"/>
     <use style="fill:#1f77b4;stroke:#1f77b4;stroke-linejoin:miter;" x="1188.821157" xlink:href="#m8310821c0a" y="413.678072"/>
     <use style="fill:#1f77b4;stroke:#1f77b4;stroke-linejoin:miter;" x="1199.888926" xlink:href="#m8310821c0a" y="413.678072"/>
     <use style="fill:#1f77b4;stroke:#1f77b4;stroke-linejoin:miter;" x="1210.956694" xlink:href="#m8310821c0a" y="413.678072"/>
     <use style="fill:#1f77b4;stroke:#1f77b4;stroke-linejoin:miter;" x="1222.024463" xlink:href="#m8310821c0a" y="413.678072"/>
    </g>
   </g>
   <g id="line2d_110">
    <path clip-path="url(#p6bb518595a)" d="M 779.313719 413.678072 
L 1222.024463 413.678072 
" style="fill:none;stroke:#d62728;stroke-linecap:square;stroke-width:1.5;"/>
   </g>
   <g id="line2d_111">
    <path clip-path="url(#p6bb518595a)" d="M 1000.669091 413.678072 
" style="fill:none;stroke:#000000;stroke-linecap:square;stroke-width:1.5;"/>
    <defs>
     <path d="M 0 3 
C 0.795609 3 1.55874 2.683901 2.12132 2.12132 
C 2.683901 1.55874 3 0.795609 3 0 
C 3 -0.795609 2.683901 -1.55874 2.12132 -2.12132 
C 1.55874 -2.683901 0.795609 -3 0 -3 
C -0.795609 -3 -1.55874 -2.683901 -2.12132 -2.12132 
C -2.683901 -1.55874 -3 -0.795609 -3 0 
C -3 0.795609 -2.683901 1.55874 -2.12132 2.12132 
C -1.55874 2.683901 -0.795609 3 0 3 
z
" id="me31d9e4f4e" style="stroke:#000000;"/>
    </defs>
    <g clip-path="url(#p6bb518595a)">
     <use style="stroke:#000000;" x="1000.669091" xlink:href="#me31d9e4f4e" y="413.678072"/>
    </g>
   </g>
   <g id="line2d_112">
    <path clip-path="url(#p6bb518595a)" d="M 779.313719 413.678072 
L 783.785545 413.678072 
L 788.25737 413.678072 
L 792.729196 413.678072 
L 797.201022 413.678072 
L 801.672847 413.678072 
L 806.144673 413.678072 
L 810.616499 413.678072 
L 815.088325 413.678072 
L 819.56015 413.678072 
L 824.031976 413.678072 
L 828.503802 413.678072 
L 832.975627 413.678072 
L 837.447453 413.678072 
L 841.919279 413.678072 
L 846.391104 413.678072 
L 850.86293 413.678072 
L 855.334756 413.678072 
L 859.806582 413.678072 
L 864.278407 413.678072 
L 868.750233 413.678072 
L 873.222059 413.678072 
L 877.693884 413.678072 
L 882.16571 413.678072 
L 886.637536 413.678072 
L 891.109361 413.678072 
L 895.581187 413.678072 
L 900.053013 413.678072 
L 904.524838 413.678072 
L 908.996664 413.678072 
L 913.46849 413.678072 
L 917.940316 413.678072 
L 922.412141 413.678072 
L 926.883967 413.678072 
L 931.355793 413.678072 
L 935.827618 413.678072 
L 940.299444 413.678072 
L 944.77127 413.678072 
L 949.243095 413.678072 
L 953.714921 413.678072 
L 958.186747 413.678072 
L 962.658573 413.678072 
L 967.130398 413.678072 
L 971.602224 413.678072 
L 976.07405 413.678072 
L 980.545875 413.678072 
L 985.017701 413.678072 
L 989.489527 413.678072 
L 993.961352 413.678072 
L 998.433178 413.678072 
L 1002.905004 413.678072 
L 1007.376829 413.678072 
L 1011.848655 413.678072 
L 1016.320481 413.678072 
L 1020.792307 413.678072 
L 1025.264132 413.678072 
L 1029.735958 413.678072 
L 1034.207784 413.678072 
L 1038.679609 413.678072 
L 1043.151435 413.678072 
L 1047.623261 413.678072 
L 1052.095086 413.678072 
L 1056.566912 413.678072 
L 1061.038738 413.678072 
L 1065.510563 413.678072 
L 1069.982389 413.678072 
L 1074.454215 413.678072 
L 1078.926041 413.678072 
L 1083.397866 413.678072 
L 1087.869692 413.678072 
L 1092.341518 413.678072 
L 1096.813343 413.678072 
L 1101.285169 413.678072 
L 1105.756995 413.678072 
L 1110.22882 413.678072 
L 1114.700646 413.678072 
L 1119.172472 413.678072 
L 1123.644298 413.678072 
L 1128.116123 413.678072 
L 1132.587949 413.678072 
L 1137.059775 413.678072 
L 1141.5316 413.678072 
L 1146.003426 413.678072 
L 1150.475252 413.678072 
L 1154.947077 413.678072 
L 1159.418903 413.678072 
L 1163.890729 413.678072 
L 1168.362554 413.678072 
L 1172.83438 413.678072 
L 1177.306206 413.678072 
L 1181.778032 413.678072 
L 1186.249857 413.678072 
L 1190.721683 413.678072 
L 1195.193509 413.678072 
L 1199.665334 413.678072 
L 1204.13716 413.678072 
L 1208.608986 413.678072 
L 1213.080811 413.678072 
L 1217.552637 413.678072 
L 1222.024463 413.678072 
" style="fill:none;stroke:#000000;stroke-linecap:square;stroke-width:1.5;"/>
   </g>
   <g id="line2d_113">
    <path clip-path="url(#p6bb518595a)" d="M 1222.024463 413.678072 
" style="fill:none;stroke:#000000;stroke-linecap:square;stroke-width:1.5;"/>
    <defs>
     <path d="M -4.5 3 
L 0 0 
L -4.5 -3 
" id="md0b4f28d32" style="stroke:#000000;stroke-linejoin:miter;"/>
    </defs>
    <g clip-path="url(#p6bb518595a)">
     <use style="stroke:#000000;stroke-linejoin:miter;" x="1222.024463" xlink:href="#md0b4f28d32" y="413.678072"/>
    </g>
   </g>
   <g id="line2d_114">
    <path clip-path="url(#p6bb518595a)" d="M 1000.669091 606.9816 
L 1000.669091 603.076478 
L 1000.669091 599.171356 
L 1000.669091 595.266235 
L 1000.669091 591.361113 
L 1000.669091 587.455991 
L 1000.669091 583.550869 
L 1000.669091 579.645748 
L 1000.669091 575.740626 
L 1000.669091 571.835504 
L 1000.669091 567.930382 
L 1000.669091 564.02526 
L 1000.669091 560.120139 
L 1000.669091 556.215017 
L 1000.669091 552.309895 
L 1000.669091 548.404773 
L 1000.669091 544.499652 
L 1000.669091 540.59453 
L 1000.669091 536.689408 
L 1000.669091 532.784286 
L 1000.669091 528.879164 
L 1000.669091 524.974043 
L 1000.669091 521.068921 
L 1000.669091 517.163799 
L 1000.669091 513.258677 
L 1000.669091 509.353556 
L 1000.669091 505.448434 
L 1000.669091 501.543312 
L 1000.669091 497.63819 
L 1000.669091 493.733068 
L 1000.669091 489.827947 
L 1000.669091 485.922825 
L 1000.669091 482.017703 
L 1000.669091 478.112581 
L 1000.669091 474.207459 
L 1000.669091 470.302338 
L 1000.669091 466.397216 
L 1000.669091 462.492094 
L 1000.669091 458.586972 
L 1000.669091 454.681851 
L 1000.669091 450.776729 
L 1000.669091 446.871607 
L 1000.669091 442.966485 
L 1000.669091 439.061363 
L 1000.669091 435.156242 
L 1000.669091 431.25112 
L 1000.669091 427.345998 
L 1000.669091 423.440876 
L 1000.669091 419.535755 
L 1000.669091 415.630633 
L 1000.669091 411.725511 
L 1000.669091 407.820389 
L 1000.669091 403.915267 
L 1000.669091 400.010146 
L 1000.669091 396.105024 
L 1000.669091 392.199902 
L 1000.669091 388.29478 
L 1000.669091 384.389659 
L 1000.669091 380.484537 
L 1000.669091 376.579415 
L 1000.669091 372.674293 
L 1000.669091 368.769171 
L 1000.669091 364.86405 
L 1000.669091 360.958928 
L 1000.669091 357.053806 
L 1000.669091 353.148684 
L 1000.669091 349.243563 
L 1000.669091 345.338441 
L 1000.669091 341.433319 
L 1000.669091 337.528197 
L 1000.669091 333.623075 
L 1000.669091 329.717954 
L 1000.669091 325.812832 
L 1000.669091 321.90771 
L 1000.669091 318.002588 
L 1000.669091 314.097467 
L 1000.669091 310.192345 
L 1000.669091 306.287223 
L 1000.669091 302.382101 
L 1000.669091 298.476979 
L 1000.669091 294.571858 
L 1000.669091 290.666736 
L 1000.669091 286.761614 
L 1000.669091 282.856492 
L 1000.669091 278.95137 
L 1000.669091 275.046249 
L 1000.669091 271.141127 
L 1000.669091 267.236005 
L 1000.669091 263.330883 
L 1000.669091 259.425762 
L 1000.669091 255.52064 
L 1000.669091 251.615518 
L 1000.669091 247.710396 
L 1000.669091 243.805274 
L 1000.669091 239.900153 
L 1000.669091 235.995031 
L 1000.669091 232.089909 
L 1000.669091 228.184787 
L 1000.669091 224.279666 
L 1000.669091 220.374544 
" style="fill:none;stroke:#000000;stroke-linecap:square;stroke-width:1.5;"/>
   </g>
   <g id="line2d_115">
    <path clip-path="url(#p6bb518595a)" d="M 1000.669091 220.374544 
" style="fill:none;stroke:#000000;stroke-linecap:square;stroke-width:1.5;"/>
    <defs>
     <path d="M 3 4.5 
L 0 0 
L -3 4.5 
" id="m59f41b4be2" style="stroke:#000000;stroke-linejoin:miter;"/>
    </defs>
    <g clip-path="url(#p6bb518595a)">
     <use style="stroke:#000000;stroke-linejoin:miter;" x="1000.669091" xlink:href="#m59f41b4be2" y="220.374544"/>
    </g>
   </g>
   <g id="patch_8">
    <path d="M 757.178182 631.8288 
L 757.178182 85.1904 
" style="fill:none;stroke:#000000;stroke-linecap:square;stroke-linejoin:miter;stroke-width:0.8;"/>
   </g>
   <g id="patch_9">
    <path d="M 1244.16 631.8288 
L 1244.16 85.1904 
" style="fill:none;stroke:#000000;stroke-linecap:square;stroke-linejoin:miter;stroke-width:0.8;"/>
   </g>
   <g id="patch_10">
    <path d="M 757.178182 631.8288 
L 1244.16 631.8288 
" style="fill:none;stroke:#000000;stroke-linecap:square;stroke-linejoin:miter;stroke-width:0.8;"/>
   </g>
   <g id="patch_11">
    <path d="M 757.178182 85.1904 
L 1244.16 85.1904 
" style="fill:none;stroke:#000000;stroke-linecap:square;stroke-linejoin:miter;stroke-width:0.8;"/>
   </g>
   <g id="text_39">
    <!-- cos(t) -->
    <defs>
     <path d="M 32.8125 77.734375 
Q 30.859375 74.21875 27.34375 61.71875 
L 44.921875 61.71875 
Q 44.53125 55.078125 44.53125 44.921875 
L 44.53125 10.546875 
Q 44.53125 4.6875 44.921875 -6.25 
L 37.109375 -6.25 
L 37.109375 1.5625 
L 17.1875 1.5625 
L 17.1875 -7.03125 
L 9.375 -7.03125 
Q 9.765625 5.46875 9.765625 8.59375 
L 9.765625 44.53125 
Q 9.765625 55.078125 9.375 61.71875 
L 20.703125 61.71875 
Q 22.65625 70.703125 23.828125 80.46875 
Q 29.296875 78.515625 32.8125 77.734375 
z
M 91.015625 48.046875 
Q 90.625 24.21875 89.0625 2.734375 
Q 88.28125 -4.296875 81.640625 -6.640625 
Q 75 -8.984375 66.796875 -9.765625 
Q 66.40625 -5.46875 63.28125 -0.78125 
Q 71.09375 -1.171875 75.578125 -0.390625 
Q 80.078125 0.390625 81.25 3.125 
Q 82.421875 5.859375 83 19.140625 
Q 83.59375 32.421875 83.984375 56.25 
L 61.328125 56.25 
Q 58.203125 48.828125 52.34375 38.671875 
Q 49.609375 41.40625 45.703125 42.96875 
Q 49.21875 47.65625 52.34375 54.296875 
Q 55.46875 60.9375 57.8125 68.75 
Q 60.15625 76.5625 60.546875 80.859375 
Q 66.015625 78.515625 69.921875 77.34375 
Q 67.96875 74.21875 66.59375 70.5 
Q 65.234375 66.796875 63.671875 63.28125 
L 91.40625 63.28125 
Q 91.015625 55.078125 91.015625 48.046875 
z
M 37.109375 8.203125 
L 37.109375 28.90625 
L 17.1875 28.90625 
L 17.1875 8.203125 
z
M 37.109375 35.546875 
L 37.109375 55.078125 
L 17.1875 55.078125 
L 17.1875 35.546875 
z
M 67.96875 32.03125 
Q 70.3125 27.34375 73.4375 19.921875 
Q 70.703125 18.75 66.015625 16.015625 
Q 63.28125 23.4375 60.9375 28.703125 
Q 58.59375 33.984375 56.25 37.5 
Q 58.984375 39.0625 63.28125 41.40625 
z
" id="SimHei-30340"/>
     <path d="M 66.40625 69.53125 
Q 55.859375 69.53125 48.828125 69.140625 
L 48.828125 75.78125 
Q 55.46875 75.390625 61.328125 75.390625 
L 81.640625 75.390625 
Q 87.5 75.390625 93.75 75.78125 
L 93.75 69.140625 
Q 87.5 69.53125 73.4375 69.53125 
Q 72.265625 63.28125 71.09375 56.640625 
L 91.796875 56.640625 
Q 91.40625 51.171875 91.40625 45.3125 
L 91.40625 25.78125 
Q 91.40625 20.3125 91.796875 11.71875 
L 84.375 11.71875 
L 84.375 50.78125 
L 60.546875 50.78125 
L 60.546875 12.5 
L 53.125 12.5 
Q 53.515625 19.921875 53.515625 25.78125 
L 53.515625 44.140625 
Q 53.515625 51.171875 53.125 56.640625 
L 64.453125 56.640625 
Q 65.625 64.0625 66.40625 69.53125 
z
M 26.171875 42.96875 
Q 10.15625 42.96875 5.46875 42.578125 
L 5.46875 49.21875 
Q 8.59375 48.828125 11.328125 48.828125 
Q 11.328125 66.796875 10.9375 72.265625 
L 18.75 72.265625 
Q 18.359375 66.796875 18.359375 48.828125 
L 26.171875 48.828125 
L 26.171875 66.796875 
Q 26.171875 74.21875 25.78125 80.078125 
L 33.59375 80.078125 
Q 33.203125 74.21875 33.203125 66.40625 
Q 41.015625 66.40625 47.265625 66.796875 
L 47.265625 60.15625 
Q 41.015625 60.546875 33.203125 60.546875 
L 33.203125 48.828125 
Q 44.53125 48.828125 49.21875 49.21875 
L 49.21875 42.578125 
Q 44.53125 42.96875 33.203125 42.96875 
L 26.171875 42.96875 
z
M 33.59375 40.625 
Q 33.203125 35.15625 33.203125 30.078125 
L 33.203125 16.40625 
Q 40.625 25.78125 41.40625 34.375 
Q 44.921875 32.8125 49.609375 32.421875 
Q 44.53125 16.796875 34.171875 7.03125 
Q 23.828125 -2.734375 10.9375 -7.8125 
Q 8.59375 -3.90625 3.125 -1.171875 
Q 11.71875 1.171875 16.984375 3.703125 
Q 22.265625 6.25 26.171875 9.765625 
L 26.171875 29.6875 
Q 26.171875 35.15625 25.78125 40.625 
L 33.59375 40.625 
z
M 43.359375 -3.90625 
Q 53.125 -1.171875 58.390625 3.515625 
Q 63.671875 8.203125 65.8125 13.859375 
Q 67.96875 19.53125 68.15625 26.953125 
Q 68.359375 34.375 67.96875 42.96875 
Q 72.65625 42.1875 76.953125 41.40625 
Q 75.78125 36.328125 75.578125 30.859375 
Q 75.390625 25.390625 74.21875 17.375 
Q 73.046875 9.375 67.1875 2.53125 
Q 61.328125 -4.296875 50.78125 -10.15625 
Q 48.046875 -7.03125 43.359375 -3.90625 
z
M 91.40625 -10.15625 
Q 86.71875 -4.296875 75 3.90625 
Q 77.734375 6.640625 79.296875 9.375 
Q 91.015625 1.171875 96.875 -3.90625 
Q 93.359375 -6.640625 91.40625 -10.15625 
z
M 6.25 18.359375 
Q 10.15625 24.21875 14.0625 37.109375 
Q 17.578125 35.546875 21.484375 34.765625 
Q 15.625 20.703125 13.28125 16.015625 
Q 10.15625 17.96875 6.25 18.359375 
z
" id="SimHei-39057"/>
     <path d="M 87.5 28.90625 
Q 87.109375 21.484375 87.109375 8.984375 
Q 87.109375 -3.515625 87.5 -10.9375 
L 79.6875 -10.9375 
L 79.6875 -4.6875 
L 48.4375 -4.6875 
L 48.4375 -10.546875 
L 40.625 -10.546875 
Q 41.015625 -1.953125 41.015625 9.765625 
Q 41.015625 21.484375 40.625 28.90625 
L 87.5 28.90625 
z
M 67.96875 67.96875 
Q 72.265625 76.5625 73.828125 82.421875 
Q 77.734375 80.46875 82.421875 78.90625 
Q 79.296875 76.171875 75.390625 67.96875 
Q 88.28125 67.96875 94.53125 68.359375 
L 94.53125 62.109375 
Q 89.453125 62.5 75 62.5 
L 75 42.1875 
Q 87.109375 42.1875 96.484375 42.578125 
L 96.484375 36.328125 
Q 89.84375 36.71875 83.984375 36.71875 
L 42.96875 36.71875 
Q 35.546875 36.71875 29.296875 36.328125 
L 29.296875 42.578125 
Q 35.546875 42.1875 51.5625 42.1875 
L 51.5625 62.5 
Q 38.671875 62.5 32.8125 62.109375 
L 32.8125 68.359375 
Q 40.234375 67.96875 51.171875 67.96875 
Q 49.609375 71.09375 44.140625 77.34375 
Q 47.265625 79.6875 49.609375 82.03125 
Q 55.46875 75.390625 58.203125 71.875 
Q 55.859375 69.921875 53.90625 67.96875 
z
M 35.15625 8.984375 
Q 31.640625 6.25 26.5625 1.359375 
Q 21.484375 -3.515625 18.359375 -7.421875 
Q 16.40625 -3.515625 12.5 -1.5625 
Q 15.625 0.78125 15.625 4.296875 
L 15.625 42.578125 
Q 8.59375 42.578125 3.515625 42.1875 
L 3.515625 49.21875 
Q 8.203125 48.828125 11.328125 48.828125 
L 23.046875 48.828125 
Q 22.65625 42.578125 22.65625 36.71875 
L 22.65625 7.03125 
Q 26.171875 10.15625 30.46875 16.015625 
Q 31.640625 13.28125 35.15625 8.984375 
z
M 79.6875 14.84375 
L 79.6875 23.046875 
L 48.4375 23.046875 
L 48.4375 14.84375 
z
M 79.6875 0.78125 
L 79.6875 8.984375 
L 48.4375 8.984375 
L 48.4375 0.78125 
z
M 67.96875 42.1875 
L 67.96875 62.5 
L 58.59375 62.5 
L 58.59375 42.1875 
z
M 14.453125 77.734375 
Q 18.359375 73.4375 26.953125 64.84375 
Q 23.046875 62.5 19.921875 59.375 
Q 14.0625 67.1875 8.59375 72.65625 
Q 10.9375 74.609375 14.453125 77.734375 
z
M 91.40625 57.421875 
Q 86.328125 48.046875 83.984375 44.140625 
Q 80.859375 46.484375 78.125 46.875 
Q 82.03125 53.90625 83.984375 60.15625 
Q 87.890625 58.203125 91.40625 57.421875 
z
M 35.15625 56.25 
Q 38.28125 57.421875 41.015625 59.375 
Q 45.3125 53.515625 48.4375 48.4375 
Q 44.53125 46.875 41.40625 44.921875 
Q 39.453125 50.390625 35.15625 56.25 
z
" id="SimHei-35889"/>
    </defs>
    <g transform="translate(964.669091 79.1904)scale(0.12 -0.12)">
     <use xlink:href="#SimHei-99"/>
     <use x="50" xlink:href="#SimHei-111"/>
     <use x="100" xlink:href="#SimHei-115"/>
     <use x="150" xlink:href="#SimHei-40"/>
     <use x="200" xlink:href="#SimHei-116"/>
     <use x="250" xlink:href="#SimHei-41"/>
     <use x="300" xlink:href="#SimHei-30340"/>
     <use x="400" xlink:href="#SimHei-39057"/>
     <use x="500" xlink:href="#SimHei-35889"/>
    </g>
   </g>
  </g>
 </g>
 <defs>
  <clipPath id="pe971727c8c">
   <rect height="546.6384" width="486.981818" x="172.8" y="85.1904"/>
  </clipPath>
  <clipPath id="p6bb518595a">
   <rect height="546.6384" width="486.981818" x="757.178182" y="85.1904"/>
  </clipPath>
 </defs>
</svg>
