<?xml version="1.0" encoding="utf-8" standalone="no"?>
<!DOCTYPE svg PUBLIC "-//W3C//DTD SVG 1.1//EN"
  "http://www.w3.org/Graphics/SVG/1.1/DTD/svg11.dtd">
<!-- Created with matplotlib (https://matplotlib.org/) -->
<svg height="709.92pt" version="1.1" viewBox="0 0 1382.4 709.92" width="1382.4pt" xmlns="http://www.w3.org/2000/svg" xmlns:xlink="http://www.w3.org/1999/xlink">
 <defs>
  <style type="text/css">
*{stroke-linecap:butt;stroke-linejoin:round;}
  </style>
 </defs>
 <g id="figure_1">
  <g id="patch_1">
   <path d="M 0 709.92 
L 1382.4 709.92 
L 1382.4 0 
L 0 0 
z
" style="fill:#ffffff;"/>
  </g>
  <g id="axes_1">
   <g id="patch_2">
    <path d="M 172.8 631.8288 
L 659.781818 631.8288 
L 659.781818 85.1904 
L 172.8 85.1904 
z
" style="fill:#ffffff;"/>
   </g>
   <g id="matplotlib.axis_1">
    <g id="xtick_1">
     <g id="line2d_1">
      <path clip-path="url(#pbd07798990)" d="M 239.206612 631.8288 
L 239.206612 85.1904 
" style="fill:none;stroke:#b0b0b0;stroke-linecap:square;stroke-width:0.8;"/>
     </g>
     <g id="line2d_2">
      <defs>
       <path d="M 0 0 
L 0 3.5 
" id="m44740d02ce" style="stroke:#000000;stroke-width:0.8;"/>
      </defs>
      <g>
       <use style="stroke:#000000;stroke-width:0.8;" x="239.206612" xlink:href="#m44740d02ce" y="631.8288"/>
      </g>
     </g>
     <g id="text_1">
      <!-- -4 -->
      <defs>
       <path d="M 46.484375 33.203125 
L 1.953125 33.203125 
L 1.953125 39.453125 
L 46.484375 39.453125 
z
" id="SimHei-45"/>
       <path d="M 31.25 17.1875 
L 1.171875 17.1875 
L 1.171875 23.828125 
L 32.8125 69.53125 
L 38.671875 69.53125 
L 38.671875 23.828125 
L 48.046875 23.828125 
L 48.046875 17.1875 
L 38.671875 17.1875 
L 38.671875 2.34375 
L 31.25 2.34375 
z
M 31.25 23.828125 
L 31.25 54.6875 
L 9.375 23.828125 
z
" id="SimHei-52"/>
      </defs>
      <g transform="translate(234.206612 645.7038)scale(0.1 -0.1)">
       <use xlink:href="#SimHei-45"/>
       <use x="50" xlink:href="#SimHei-52"/>
      </g>
     </g>
    </g>
    <g id="xtick_2">
     <g id="line2d_3">
      <path clip-path="url(#pbd07798990)" d="M 327.74876 631.8288 
L 327.74876 85.1904 
" style="fill:none;stroke:#b0b0b0;stroke-linecap:square;stroke-width:0.8;"/>
     </g>
     <g id="line2d_4">
      <g>
       <use style="stroke:#000000;stroke-width:0.8;" x="327.74876" xlink:href="#m44740d02ce" y="631.8288"/>
      </g>
     </g>
     <g id="text_2">
      <!-- -2 -->
      <defs>
       <path d="M 4.6875 3.90625 
Q 5.078125 9.765625 10.15625 14.453125 
Q 15.234375 19.140625 23.046875 29.09375 
Q 30.859375 39.0625 33.203125 44.53125 
Q 35.546875 50 34.953125 53.90625 
Q 34.375 57.8125 31.25 60.34375 
Q 28.125 62.890625 24.015625 62.5 
Q 19.921875 62.109375 16.203125 59.375 
Q 12.5 56.640625 10.546875 51.171875 
L 3.125 52.34375 
Q 6.25 61.328125 11.125 65.421875 
Q 16.015625 69.53125 22.65625 69.921875 
Q 26.5625 70.3125 29.6875 69.71875 
Q 32.8125 69.140625 36.125 66.984375 
Q 39.453125 64.84375 41.59375 60.546875 
Q 43.75 56.25 43.15625 50.1875 
Q 42.578125 44.140625 37.109375 35.734375 
Q 31.640625 27.34375 16.015625 9.375 
L 44.140625 9.375 
L 44.140625 2.34375 
L 4.6875 2.34375 
z
" id="SimHei-50"/>
      </defs>
      <g transform="translate(322.74876 645.7038)scale(0.1 -0.1)">
       <use xlink:href="#SimHei-45"/>
       <use x="50" xlink:href="#SimHei-50"/>
      </g>
     </g>
    </g>
    <g id="xtick_3">
     <g id="line2d_5">
      <path clip-path="url(#pbd07798990)" d="M 416.290909 631.8288 
L 416.290909 85.1904 
" style="fill:none;stroke:#b0b0b0;stroke-linecap:square;stroke-width:0.8;"/>
     </g>
     <g id="line2d_6">
      <g>
       <use style="stroke:#000000;stroke-width:0.8;" x="416.290909" xlink:href="#m44740d02ce" y="631.8288"/>
      </g>
     </g>
     <g id="text_3">
      <!-- 0 -->
      <defs>
       <path d="M 3.125 29.296875 
Q 3.90625 50 6.4375 56.046875 
Q 8.984375 62.109375 13.671875 66.015625 
Q 18.359375 69.921875 25.1875 69.921875 
Q 32.03125 69.921875 37.109375 64.25 
Q 42.1875 58.59375 43.75 50 
Q 45.3125 41.40625 44.71875 30.265625 
Q 44.140625 19.140625 40.8125 12.109375 
Q 37.5 5.078125 30.859375 2.34375 
Q 24.21875 -0.390625 17.578125 2.921875 
Q 10.9375 6.25 8.203125 11.71875 
Q 5.46875 17.1875 4.296875 23.234375 
Q 3.125 29.296875 3.90625 50 
z
M 12.890625 52.734375 
Q 10.546875 31.25 12.5 22.84375 
Q 14.453125 14.453125 18.9375 10.9375 
Q 23.4375 7.421875 28.125 9.5625 
Q 32.8125 11.71875 34.953125 18.15625 
Q 37.109375 24.609375 37.109375 32.21875 
Q 37.109375 39.84375 36.515625 46.09375 
Q 35.9375 52.34375 33 57.421875 
Q 30.078125 62.5 25.1875 62.6875 
Q 20.3125 62.890625 16.59375 57.8125 
Q 12.890625 52.734375 10.546875 31.25 
z
" id="SimHei-48"/>
      </defs>
      <g transform="translate(413.790909 645.7038)scale(0.1 -0.1)">
       <use xlink:href="#SimHei-48"/>
      </g>
     </g>
    </g>
    <g id="xtick_4">
     <g id="line2d_7">
      <path clip-path="url(#pbd07798990)" d="M 504.833058 631.8288 
L 504.833058 85.1904 
" style="fill:none;stroke:#b0b0b0;stroke-linecap:square;stroke-width:0.8;"/>
     </g>
     <g id="line2d_8">
      <g>
       <use style="stroke:#000000;stroke-width:0.8;" x="504.833058" xlink:href="#m44740d02ce" y="631.8288"/>
      </g>
     </g>
     <g id="text_4">
      <!-- 2 -->
      <g transform="translate(502.333058 645.7038)scale(0.1 -0.1)">
       <use xlink:href="#SimHei-50"/>
      </g>
     </g>
    </g>
    <g id="xtick_5">
     <g id="line2d_9">
      <path clip-path="url(#pbd07798990)" d="M 593.375207 631.8288 
L 593.375207 85.1904 
" style="fill:none;stroke:#b0b0b0;stroke-linecap:square;stroke-width:0.8;"/>
     </g>
     <g id="line2d_10">
      <g>
       <use style="stroke:#000000;stroke-width:0.8;" x="593.375207" xlink:href="#m44740d02ce" y="631.8288"/>
      </g>
     </g>
     <g id="text_5">
      <!-- 4 -->
      <g transform="translate(590.875207 645.7038)scale(0.1 -0.1)">
       <use xlink:href="#SimHei-52"/>
      </g>
     </g>
    </g>
    <g id="text_6">
     <!-- t -->
     <defs>
      <path d="M 42.96875 3.125 
Q 41.015625 2.34375 38.46875 1.75 
Q 35.9375 1.171875 31.640625 1.171875 
Q 24.609375 1.171875 20.3125 5.078125 
Q 16.015625 8.984375 16.015625 16.015625 
L 16.015625 39.453125 
L 2.734375 39.453125 
L 2.734375 45.703125 
L 16.015625 45.703125 
L 16.015625 60.9375 
L 23.828125 60.9375 
L 23.828125 45.703125 
L 39.84375 45.703125 
L 39.84375 39.453125 
L 23.828125 39.453125 
L 23.828125 15.625 
Q 23.828125 12.5 25.390625 10.34375 
Q 26.953125 8.203125 31.25 8.203125 
Q 35.546875 8.203125 38.28125 8.984375 
Q 41.015625 9.765625 42.96875 10.9375 
z
" id="SimHei-116"/>
     </defs>
     <g transform="translate(413.790909 657.8288)scale(0.1 -0.1)">
      <use xlink:href="#SimHei-116"/>
     </g>
    </g>
   </g>
   <g id="matplotlib.axis_2">
    <g id="ytick_1">
     <g id="line2d_11">
      <path clip-path="url(#pbd07798990)" d="M 172.8 606.9816 
L 659.781818 606.9816 
" style="fill:none;stroke:#b0b0b0;stroke-linecap:square;stroke-width:0.8;"/>
     </g>
     <g id="line2d_12">
      <defs>
       <path d="M 0 0 
L -3.5 0 
" id="m9ee9ef0d3f" style="stroke:#000000;stroke-width:0.8;"/>
      </defs>
      <g>
       <use style="stroke:#000000;stroke-width:0.8;" x="172.8" xlink:href="#m9ee9ef0d3f" y="606.9816"/>
      </g>
     </g>
     <g id="text_7">
      <!-- 0.0 -->
      <defs>
       <path d="M 16.796875 1.953125 
L 7.8125 1.953125 
L 7.8125 10.546875 
L 16.796875 10.546875 
z
" id="SimHei-46"/>
      </defs>
      <g transform="translate(150.8 610.4191)scale(0.1 -0.1)">
       <use xlink:href="#SimHei-48"/>
       <use x="50" xlink:href="#SimHei-46"/>
       <use x="100" xlink:href="#SimHei-48"/>
      </g>
     </g>
    </g>
    <g id="ytick_2">
     <g id="line2d_13">
      <path clip-path="url(#pbd07798990)" d="M 172.8 507.5928 
L 659.781818 507.5928 
" style="fill:none;stroke:#b0b0b0;stroke-linecap:square;stroke-width:0.8;"/>
     </g>
     <g id="line2d_14">
      <g>
       <use style="stroke:#000000;stroke-width:0.8;" x="172.8" xlink:href="#m9ee9ef0d3f" y="507.5928"/>
      </g>
     </g>
     <g id="text_8">
      <!-- 0.2 -->
      <g transform="translate(150.8 511.0303)scale(0.1 -0.1)">
       <use xlink:href="#SimHei-48"/>
       <use x="50" xlink:href="#SimHei-46"/>
       <use x="100" xlink:href="#SimHei-50"/>
      </g>
     </g>
    </g>
    <g id="ytick_3">
     <g id="line2d_15">
      <path clip-path="url(#pbd07798990)" d="M 172.8 408.204 
L 659.781818 408.204 
" style="fill:none;stroke:#b0b0b0;stroke-linecap:square;stroke-width:0.8;"/>
     </g>
     <g id="line2d_16">
      <g>
       <use style="stroke:#000000;stroke-width:0.8;" x="172.8" xlink:href="#m9ee9ef0d3f" y="408.204"/>
      </g>
     </g>
     <g id="text_9">
      <!-- 0.4 -->
      <g transform="translate(150.8 411.6415)scale(0.1 -0.1)">
       <use xlink:href="#SimHei-48"/>
       <use x="50" xlink:href="#SimHei-46"/>
       <use x="100" xlink:href="#SimHei-52"/>
      </g>
     </g>
    </g>
    <g id="ytick_4">
     <g id="line2d_17">
      <path clip-path="url(#pbd07798990)" d="M 172.8 308.8152 
L 659.781818 308.8152 
" style="fill:none;stroke:#b0b0b0;stroke-linecap:square;stroke-width:0.8;"/>
     </g>
     <g id="line2d_18">
      <g>
       <use style="stroke:#000000;stroke-width:0.8;" x="172.8" xlink:href="#m9ee9ef0d3f" y="308.8152"/>
      </g>
     </g>
     <g id="text_10">
      <!-- 0.6 -->
      <defs>
       <path d="M 3.515625 19.53125 
Q 4.296875 30.859375 6.046875 34.765625 
Q 7.8125 38.671875 11.328125 44.53125 
L 27.34375 69.53125 
L 36.328125 69.53125 
L 19.921875 43.75 
Q 30.46875 46.484375 36.71875 42.96875 
Q 42.96875 39.453125 45.109375 34.953125 
Q 47.265625 30.46875 47.453125 25.1875 
Q 47.65625 19.921875 45.890625 14.84375 
Q 44.140625 9.765625 39.640625 5.65625 
Q 35.15625 1.5625 27.140625 1.171875 
Q 19.140625 0.78125 13.46875 4.09375 
Q 7.8125 7.421875 5.65625 13.46875 
Q 3.515625 19.53125 4.296875 30.859375 
z
M 12.5 16.015625 
Q 19.53125 8.59375 25.390625 8.203125 
Q 31.25 7.8125 35.15625 12.109375 
Q 39.0625 16.40625 39.0625 24.609375 
Q 39.0625 32.8125 34.171875 35.9375 
Q 29.296875 39.0625 23.234375 38.28125 
Q 17.1875 37.5 14.453125 32.421875 
Q 11.71875 27.34375 12.109375 21.671875 
Q 12.5 16.015625 19.53125 8.59375 
z
" id="SimHei-54"/>
      </defs>
      <g transform="translate(150.8 312.2527)scale(0.1 -0.1)">
       <use xlink:href="#SimHei-48"/>
       <use x="50" xlink:href="#SimHei-46"/>
       <use x="100" xlink:href="#SimHei-54"/>
      </g>
     </g>
    </g>
    <g id="ytick_5">
     <g id="line2d_19">
      <path clip-path="url(#pbd07798990)" d="M 172.8 209.4264 
L 659.781818 209.4264 
" style="fill:none;stroke:#b0b0b0;stroke-linecap:square;stroke-width:0.8;"/>
     </g>
     <g id="line2d_20">
      <g>
       <use style="stroke:#000000;stroke-width:0.8;" x="172.8" xlink:href="#m9ee9ef0d3f" y="209.4264"/>
      </g>
     </g>
     <g id="text_11">
      <!-- 0.8 -->
      <defs>
       <path d="M 2.734375 16.796875 
Q 2.734375 26.171875 5.078125 30.65625 
Q 7.421875 35.15625 12.890625 37.890625 
Q 8.203125 40.625 6.640625 43.9375 
Q 5.078125 47.265625 4.875 51.5625 
Q 4.6875 55.859375 6.046875 58.984375 
Q 7.421875 62.109375 10.15625 64.84375 
Q 12.890625 67.578125 16.203125 68.546875 
Q 19.53125 69.53125 23.4375 69.53125 
Q 27.34375 69.53125 30.46875 68.75 
Q 33.59375 67.96875 37.109375 65.421875 
Q 40.625 62.890625 42.1875 58.203125 
Q 43.75 53.515625 41.984375 47.265625 
Q 40.234375 41.015625 32.8125 37.5 
Q 39.453125 35.546875 42.1875 31.4375 
Q 44.921875 27.34375 44.921875 21.484375 
Q 44.921875 15.625 43.15625 12.109375 
Q 41.40625 8.59375 39.25 6.25 
Q 37.109375 3.90625 33.390625 2.53125 
Q 29.6875 1.171875 24.015625 1.171875 
Q 18.359375 1.171875 14.25 2.53125 
Q 10.15625 3.90625 7.421875 6.640625 
Q 4.6875 9.375 3.703125 13.078125 
Q 2.734375 16.796875 2.734375 26.171875 
z
M 10.9375 26.5625 
Q 10.546875 17.1875 12.296875 13.671875 
Q 14.0625 10.15625 18.75 9.171875 
Q 23.4375 8.203125 28.515625 9.375 
Q 33.59375 10.546875 35.546875 14.84375 
Q 37.5 19.140625 36.90625 23.4375 
Q 36.328125 27.734375 32.03125 30.65625 
Q 27.734375 33.59375 22.65625 33.203125 
Q 17.578125 32.8125 14.25 29.6875 
Q 10.9375 26.5625 10.546875 17.1875 
z
M 12.109375 56.25 
Q 12.109375 48.4375 14.84375 44.921875 
Q 17.578125 41.40625 23.4375 41.40625 
Q 29.296875 41.40625 32.21875 44.921875 
Q 35.15625 48.4375 34.953125 53.3125 
Q 34.765625 58.203125 31.4375 60.546875 
Q 28.125 62.890625 22.453125 62.5 
Q 16.796875 62.109375 14.453125 59.171875 
Q 12.109375 56.25 12.109375 48.4375 
z
" id="SimHei-56"/>
      </defs>
      <g transform="translate(150.8 212.8639)scale(0.1 -0.1)">
       <use xlink:href="#SimHei-48"/>
       <use x="50" xlink:href="#SimHei-46"/>
       <use x="100" xlink:href="#SimHei-56"/>
      </g>
     </g>
    </g>
    <g id="ytick_6">
     <g id="line2d_21">
      <path clip-path="url(#pbd07798990)" d="M 172.8 110.0376 
L 659.781818 110.0376 
" style="fill:none;stroke:#b0b0b0;stroke-linecap:square;stroke-width:0.8;"/>
     </g>
     <g id="line2d_22">
      <g>
       <use style="stroke:#000000;stroke-width:0.8;" x="172.8" xlink:href="#m9ee9ef0d3f" y="110.0376"/>
      </g>
     </g>
     <g id="text_12">
      <!-- 1.0 -->
      <defs>
       <path d="M 21.875 56.25 
Q 16.796875 51.171875 8.984375 46.484375 
L 8.984375 53.90625 
Q 18.75 60.546875 25 69.53125 
L 29.6875 69.53125 
L 29.6875 2.34375 
L 21.875 2.34375 
z
" id="SimHei-49"/>
      </defs>
      <g transform="translate(150.8 113.4751)scale(0.1 -0.1)">
       <use xlink:href="#SimHei-49"/>
       <use x="50" xlink:href="#SimHei-46"/>
       <use x="100" xlink:href="#SimHei-48"/>
      </g>
     </g>
    </g>
    <g id="text_13">
     <!-- square(t) -->
     <defs>
      <path d="M 42.96875 14.0625 
Q 42.96875 7.8125 38.078125 4.484375 
Q 33.203125 1.171875 25.78125 1.171875 
Q 16.40625 1.171875 11.328125 4.875 
Q 6.25 8.59375 6.25 15.625 
L 14.0625 15.625 
Q 14.0625 10.9375 17.375 9.375 
Q 20.703125 7.8125 25.390625 7.8125 
Q 30.078125 7.8125 32.421875 9.5625 
Q 34.765625 11.328125 34.765625 14.0625 
Q 34.765625 16.015625 32.8125 17.96875 
Q 30.859375 19.921875 23.046875 21.09375 
Q 14.0625 22.265625 10.734375 25.578125 
Q 7.421875 28.90625 7.421875 34.375 
Q 7.421875 39.0625 11.90625 42.765625 
Q 16.40625 46.484375 25 46.484375 
Q 32.8125 46.484375 37.296875 42.96875 
Q 41.796875 39.453125 41.796875 33.59375 
L 33.984375 33.59375 
Q 33.984375 37.109375 31.4375 38.46875 
Q 28.90625 39.84375 25 39.84375 
Q 19.921875 39.84375 17.765625 38.078125 
Q 15.625 36.328125 15.625 33.984375 
Q 15.625 31.25 17.578125 29.6875 
Q 19.53125 28.125 25.78125 27.34375 
Q 35.9375 25.78125 39.453125 22.453125 
Q 42.96875 19.140625 42.96875 14.0625 
z
" id="SimHei-115"/>
      <path d="M 42.96875 -12.5 
L 35.15625 -12.5 
L 35.15625 7.8125 
Q 32.8125 4.296875 29.6875 2.53125 
Q 26.5625 0.78125 22.265625 0.78125 
Q 14.453125 0.78125 8.984375 6.640625 
Q 3.515625 12.5 3.515625 23.828125 
Q 3.515625 35.15625 8.984375 40.8125 
Q 14.453125 46.484375 22.265625 46.484375 
Q 26.5625 46.484375 29.6875 44.921875 
Q 32.8125 43.359375 35.15625 39.84375 
L 35.15625 45.703125 
L 42.96875 45.703125 
z
M 35.15625 23.828125 
Q 35.15625 31.25 31.828125 35.34375 
Q 28.515625 39.453125 23.828125 39.453125 
Q 17.96875 39.453125 15.03125 35.34375 
Q 12.109375 31.25 12.109375 23.828125 
Q 12.109375 16.40625 15.03125 12.109375 
Q 17.96875 7.8125 23.828125 7.8125 
Q 28.515625 7.8125 31.828125 12.109375 
Q 35.15625 16.40625 35.15625 23.828125 
z
" id="SimHei-113"/>
      <path d="M 43.75 1.953125 
L 35.9375 1.953125 
L 35.9375 10.15625 
Q 32.8125 5.859375 29.09375 3.515625 
Q 25.390625 1.171875 19.53125 1.171875 
Q 12.5 1.171875 8.984375 5.078125 
Q 5.46875 8.984375 5.46875 14.84375 
L 5.46875 45.703125 
L 13.28125 45.703125 
L 13.28125 17.578125 
Q 13.28125 12.890625 15.625 10.15625 
Q 17.96875 7.421875 21.875 7.421875 
Q 26.953125 7.421875 31.4375 12.6875 
Q 35.9375 17.96875 35.9375 25.78125 
L 35.9375 45.703125 
L 43.75 45.703125 
z
" id="SimHei-117"/>
      <path d="M 44.921875 1.953125 
L 35.546875 1.953125 
Q 34.765625 2.734375 34.375 4.09375 
Q 33.984375 5.46875 33.984375 7.421875 
Q 31.25 4.296875 27.34375 2.734375 
Q 23.4375 1.171875 19.140625 1.171875 
Q 12.890625 1.171875 8.59375 4.296875 
Q 4.296875 7.421875 4.296875 13.28125 
Q 4.296875 19.140625 8.203125 22.65625 
Q 12.109375 26.171875 20.3125 27.34375 
Q 25.78125 28.125 29.875 29.296875 
Q 33.984375 30.46875 33.984375 32.421875 
Q 33.984375 34.765625 32.21875 37.109375 
Q 30.46875 39.453125 24.609375 39.453125 
Q 19.921875 39.453125 17.765625 37.6875 
Q 15.625 35.9375 14.84375 32.8125 
L 6.25 32.8125 
Q 7.03125 39.0625 11.90625 42.765625 
Q 16.796875 46.484375 24.609375 46.484375 
Q 33.203125 46.484375 37.5 42.578125 
Q 41.796875 38.671875 41.796875 31.640625 
L 41.796875 10.15625 
Q 41.796875 7.8125 42.578125 5.859375 
Q 43.359375 3.90625 44.921875 1.953125 
z
M 33.984375 16.40625 
L 33.984375 24.21875 
Q 31.640625 23.4375 29.484375 22.84375 
Q 27.34375 22.265625 22.265625 21.484375 
Q 16.40625 20.703125 14.640625 18.75 
Q 12.890625 16.796875 12.890625 14.0625 
Q 12.890625 11.71875 14.640625 9.953125 
Q 16.40625 8.203125 19.921875 8.203125 
Q 23.4375 8.203125 27.53125 10.15625 
Q 31.640625 12.109375 33.984375 16.40625 
z
" id="SimHei-97"/>
      <path d="M 39.0625 37.890625 
Q 31.640625 39.0625 26.5625 35.734375 
Q 21.484375 32.421875 17.96875 24.21875 
L 17.96875 1.953125 
L 10.15625 1.953125 
L 10.15625 45.703125 
L 17.96875 45.703125 
L 17.96875 34.375 
Q 21.484375 40.625 26.75 43.546875 
Q 32.03125 46.484375 39.0625 46.484375 
z
" id="SimHei-114"/>
      <path d="M 44.53125 16.796875 
Q 43.75 9.765625 38.28125 5.46875 
Q 32.8125 1.171875 25.390625 1.171875 
Q 16.015625 1.171875 9.953125 7.21875 
Q 3.90625 13.28125 3.90625 23.828125 
Q 3.90625 34.375 9.953125 40.421875 
Q 16.015625 46.484375 25.390625 46.484375 
Q 33.59375 46.484375 38.859375 41.203125 
Q 44.140625 35.9375 44.140625 23.828125 
L 12.5 23.828125 
Q 12.5 15.234375 16.203125 11.71875 
Q 19.921875 8.203125 25.390625 8.203125 
Q 29.6875 8.203125 32.421875 10.34375 
Q 35.15625 12.5 35.9375 16.796875 
z
M 35.15625 30.078125 
Q 34.375 35.546875 31.640625 37.6875 
Q 28.90625 39.84375 24.609375 39.84375 
Q 20.703125 39.84375 17.578125 37.6875 
Q 14.453125 35.546875 12.890625 30.078125 
z
" id="SimHei-101"/>
      <path d="M 46.484375 -3.125 
L 42.1875 -7.421875 
Q 32.421875 1.953125 27.53125 12.109375 
Q 22.65625 22.265625 22.65625 35.15625 
Q 22.65625 48.046875 27.53125 58.203125 
Q 32.421875 68.359375 42.1875 78.125 
L 46.484375 73.828125 
Q 37.5 65.234375 33 56.046875 
Q 28.515625 46.875 28.515625 35.15625 
Q 28.515625 23.4375 33 14.25 
Q 37.5 5.078125 46.484375 -3.125 
z
" id="SimHei-40"/>
      <path d="M 26.171875 35.15625 
Q 26.171875 22.265625 21.28125 12.109375 
Q 16.40625 1.953125 6.640625 -7.421875 
L 2.34375 -3.125 
Q 11.328125 5.078125 15.8125 14.25 
Q 20.3125 23.4375 20.3125 35.15625 
Q 20.3125 46.875 15.8125 56.046875 
Q 11.328125 65.234375 2.34375 73.828125 
L 6.640625 78.125 
Q 16.40625 68.359375 21.28125 58.203125 
Q 26.171875 48.046875 26.171875 35.15625 
z
" id="SimHei-41"/>
     </defs>
     <g transform="translate(145.55 381.0096)rotate(-90)scale(0.1 -0.1)">
      <use xlink:href="#SimHei-115"/>
      <use x="50" xlink:href="#SimHei-113"/>
      <use x="100" xlink:href="#SimHei-117"/>
      <use x="150" xlink:href="#SimHei-97"/>
      <use x="200" xlink:href="#SimHei-114"/>
      <use x="250" xlink:href="#SimHei-101"/>
      <use x="300" xlink:href="#SimHei-40"/>
      <use x="350" xlink:href="#SimHei-116"/>
      <use x="400" xlink:href="#SimHei-41"/>
     </g>
    </g>
   </g>
   <g id="line2d_23">
    <path clip-path="url(#pbd07798990)" d="M 194.935537 110.0376 
L 238.807773 110.0376 
L 239.250927 606.9816 
L 371.753942 606.9816 
L 372.197096 110.0376 
L 460.384722 110.0376 
L 460.827876 606.9816 
L 593.330891 606.9816 
L 593.774045 110.0376 
L 637.646281 110.0376 
L 637.646281 110.0376 
" style="fill:none;stroke:#000000;stroke-linecap:square;stroke-width:1.5;"/>
   </g>
   <g id="patch_3">
    <path d="M 172.8 631.8288 
L 172.8 85.1904 
" style="fill:none;stroke:#000000;stroke-linecap:square;stroke-linejoin:miter;stroke-width:0.8;"/>
   </g>
   <g id="patch_4">
    <path d="M 659.781818 631.8288 
L 659.781818 85.1904 
" style="fill:none;stroke:#000000;stroke-linecap:square;stroke-linejoin:miter;stroke-width:0.8;"/>
   </g>
   <g id="patch_5">
    <path d="M 172.8 631.8288 
L 659.781818 631.8288 
" style="fill:none;stroke:#000000;stroke-linecap:square;stroke-linejoin:miter;stroke-width:0.8;"/>
   </g>
   <g id="patch_6">
    <path d="M 172.8 85.1904 
L 659.781818 85.1904 
" style="fill:none;stroke:#000000;stroke-linecap:square;stroke-linejoin:miter;stroke-width:0.8;"/>
   </g>
   <g id="text_14">
    <!-- square(t) -->
    <g transform="translate(389.290909 79.1904)scale(0.12 -0.12)">
     <use xlink:href="#SimHei-115"/>
     <use x="50" xlink:href="#SimHei-113"/>
     <use x="100" xlink:href="#SimHei-117"/>
     <use x="150" xlink:href="#SimHei-97"/>
     <use x="200" xlink:href="#SimHei-114"/>
     <use x="250" xlink:href="#SimHei-101"/>
     <use x="300" xlink:href="#SimHei-40"/>
     <use x="350" xlink:href="#SimHei-116"/>
     <use x="400" xlink:href="#SimHei-41"/>
    </g>
   </g>
  </g>
  <g id="axes_2">
   <g id="patch_7">
    <path d="M 757.178182 631.8288 
L 1244.16 631.8288 
L 1244.16 85.1904 
L 757.178182 85.1904 
z
" style="fill:#ffffff;"/>
   </g>
   <g id="patch_8">
    <path clip-path="url(#p519a6fd301)" d="M 779.313719 518.328179 
L 780.017195 518.328179 
L 780.017195 518.328179 
L 779.313719 518.328179 
z
" style="fill:#ff0000;"/>
   </g>
   <g id="patch_9">
    <path clip-path="url(#p519a6fd301)" d="M 783.733792 518.328179 
L 784.437268 518.328179 
L 784.437268 524.634408 
L 783.733792 524.634408 
z
" style="fill:#ff0000;"/>
   </g>
   <g id="patch_10">
    <path clip-path="url(#p519a6fd301)" d="M 788.153864 518.328179 
L 788.857341 518.328179 
L 788.857341 522.30684 
L 788.153864 522.30684 
z
" style="fill:#ff0000;"/>
   </g>
   <g id="patch_11">
    <path clip-path="url(#p519a6fd301)" d="M 792.573937 518.328179 
L 793.277413 518.328179 
L 793.277413 514.264865 
L 792.573937 514.264865 
z
" style="fill:#ff0000;"/>
   </g>
   <g id="patch_12">
    <path clip-path="url(#p519a6fd301)" d="M 796.99401 518.328179 
L 797.697486 518.328179 
L 797.697486 511.610674 
L 796.99401 511.610674 
z
" style="fill:#ff0000;"/>
   </g>
   <g id="patch_13">
    <path clip-path="url(#p519a6fd301)" d="M 801.414082 518.328179 
L 802.117559 518.328179 
L 802.117559 518.328179 
L 801.414082 518.328179 
z
" style="fill:#ff0000;"/>
   </g>
   <g id="patch_14">
    <path clip-path="url(#p519a6fd301)" d="M 805.834155 518.328179 
L 806.537631 518.328179 
L 806.537631 525.351025 
L 805.834155 525.351025 
z
" style="fill:#ff0000;"/>
   </g>
   <g id="patch_15">
    <path clip-path="url(#p519a6fd301)" d="M 810.254228 518.328179 
L 810.957704 518.328179 
L 810.957704 522.769475 
L 810.254228 522.769475 
z
" style="fill:#ff0000;"/>
   </g>
   <g id="patch_16">
    <path clip-path="url(#p519a6fd301)" d="M 814.6743 518.328179 
L 815.377777 518.328179 
L 815.377777 513.781137 
L 814.6743 513.781137 
z
" style="fill:#ff0000;"/>
   </g>
   <g id="patch_17">
    <path clip-path="url(#p519a6fd301)" d="M 819.094373 518.328179 
L 819.797849 518.328179 
L 819.797849 510.791466 
L 819.094373 510.791466 
z
" style="fill:#ff0000;"/>
   </g>
   <g id="patch_18">
    <path clip-path="url(#p519a6fd301)" d="M 823.514446 518.328179 
L 824.217922 518.328179 
L 824.217922 518.328179 
L 823.514446 518.328179 
z
" style="fill:#ff0000;"/>
   </g>
   <g id="patch_19">
    <path clip-path="url(#p519a6fd301)" d="M 827.934518 518.328179 
L 828.637995 518.328179 
L 828.637995 526.251389 
L 827.934518 526.251389 
z
" style="fill:#ff0000;"/>
   </g>
   <g id="patch_20">
    <path clip-path="url(#p519a6fd301)" d="M 832.354591 518.328179 
L 833.058068 518.328179 
L 833.058068 523.353856 
L 832.354591 523.353856 
z
" style="fill:#ff0000;"/>
   </g>
   <g id="patch_21">
    <path clip-path="url(#p519a6fd301)" d="M 836.774664 518.328179 
L 837.47814 518.328179 
L 837.47814 513.166672 
L 836.774664 513.166672 
z
" style="fill:#ff0000;"/>
   </g>
   <g id="patch_22">
    <path clip-path="url(#p519a6fd301)" d="M 841.194736 518.328179 
L 841.898213 518.328179 
L 841.898213 509.7447 
L 841.194736 509.7447 
z
" style="fill:#ff0000;"/>
   </g>
   <g id="patch_23">
    <path clip-path="url(#p519a6fd301)" d="M 845.614809 518.328179 
L 846.318286 518.328179 
L 846.318286 518.328179 
L 845.614809 518.328179 
z
" style="fill:#ff0000;"/>
   </g>
   <g id="patch_24">
    <path clip-path="url(#p519a6fd301)" d="M 850.034882 518.328179 
L 850.738358 518.328179 
L 850.738358 527.416567 
L 850.034882 527.416567 
z
" style="fill:#ff0000;"/>
   </g>
   <g id="patch_25">
    <path clip-path="url(#p519a6fd301)" d="M 854.454954 518.328179 
L 855.158431 518.328179 
L 855.158431 524.115322 
L 854.454954 524.115322 
z
" style="fill:#ff0000;"/>
   </g>
   <g id="patch_26">
    <path clip-path="url(#p519a6fd301)" d="M 858.875027 518.328179 
L 859.578504 518.328179 
L 859.578504 512.360187 
L 858.875027 512.360187 
z
" style="fill:#ff0000;"/>
   </g>
   <g id="patch_27">
    <path clip-path="url(#p519a6fd301)" d="M 863.2951 518.328179 
L 863.998576 518.328179 
L 863.998576 508.360268 
L 863.2951 508.360268 
z
" style="fill:#ff0000;"/>
   </g>
   <g id="patch_28">
    <path clip-path="url(#p519a6fd301)" d="M 867.715172 518.328179 
L 868.418649 518.328179 
L 868.418649 518.328179 
L 867.715172 518.328179 
z
" style="fill:#ff0000;"/>
   </g>
   <g id="patch_29">
    <path clip-path="url(#p519a6fd301)" d="M 872.135245 518.328179 
L 872.838722 518.328179 
L 872.838722 528.983531 
L 872.135245 528.983531 
z
" style="fill:#ff0000;"/>
   </g>
   <g id="patch_30">
    <path clip-path="url(#p519a6fd301)" d="M 876.555318 518.328179 
L 877.258794 518.328179 
L 877.258794 525.14874 
L 876.555318 525.14874 
z
" style="fill:#ff0000;"/>
   </g>
   <g id="patch_31">
    <path clip-path="url(#p519a6fd301)" d="M 880.975391 518.328179 
L 881.678867 518.328179 
L 881.678867 511.255003 
L 880.975391 511.255003 
z
" style="fill:#ff0000;"/>
   </g>
   <g id="patch_32">
    <path clip-path="url(#p519a6fd301)" d="M 885.395463 518.328179 
L 886.09894 518.328179 
L 886.09894 506.443362 
L 885.395463 506.443362 
z
" style="fill:#ff0000;"/>
   </g>
   <g id="patch_33">
    <path clip-path="url(#p519a6fd301)" d="M 889.815536 518.328179 
L 890.519012 518.328179 
L 890.519012 518.328179 
L 889.815536 518.328179 
z
" style="fill:#ff0000;"/>
   </g>
   <g id="patch_34">
    <path clip-path="url(#p519a6fd301)" d="M 894.235609 518.328179 
L 894.939085 518.328179 
L 894.939085 531.203396 
L 894.235609 531.203396 
z
" style="fill:#ff0000;"/>
   </g>
   <g id="patch_35">
    <path clip-path="url(#p519a6fd301)" d="M 898.655681 518.328179 
L 899.359158 518.328179 
L 899.359158 526.631471 
L 898.655681 526.631471 
z
" style="fill:#ff0000;"/>
   </g>
   <g id="patch_36">
    <path clip-path="url(#p519a6fd301)" d="M 903.075754 518.328179 
L 903.77923 518.328179 
L 903.77923 509.647464 
L 903.075754 509.647464 
z
" style="fill:#ff0000;"/>
   </g>
   <g id="patch_37">
    <path clip-path="url(#p519a6fd301)" d="M 907.495827 518.328179 
L 908.199303 518.328179 
L 908.199303 503.613644 
L 907.495827 503.613644 
z
" style="fill:#ff0000;"/>
   </g>
   <g id="patch_38">
    <path clip-path="url(#p519a6fd301)" d="M 911.915899 518.328179 
L 912.619376 518.328179 
L 912.619376 518.328179 
L 911.915899 518.328179 
z
" style="fill:#ff0000;"/>
   </g>
   <g id="patch_39">
    <path clip-path="url(#p519a6fd301)" d="M 916.335972 518.328179 
L 917.039448 518.328179 
L 917.039448 534.591611 
L 916.335972 534.591611 
z
" style="fill:#ff0000;"/>
   </g>
   <g id="patch_40">
    <path clip-path="url(#p519a6fd301)" d="M 920.756045 518.328179 
L 921.459521 518.328179 
L 921.459521 528.937941 
L 920.756045 528.937941 
z
" style="fill:#ff0000;"/>
   </g>
   <g id="patch_41">
    <path clip-path="url(#p519a6fd301)" d="M 925.176117 518.328179 
L 925.879594 518.328179 
L 925.879594 507.094312 
L 925.176117 507.094312 
z
" style="fill:#ff0000;"/>
   </g>
   <g id="patch_42">
    <path clip-path="url(#p519a6fd301)" d="M 929.59619 518.328179 
L 930.299666 518.328179 
L 930.299666 499.015352 
L 929.59619 499.015352 
z
" style="fill:#ff0000;"/>
   </g>
   <g id="patch_43">
    <path clip-path="url(#p519a6fd301)" d="M 934.016263 518.328179 
L 934.719739 518.328179 
L 934.719739 518.328179 
L 934.016263 518.328179 
z
" style="fill:#ff0000;"/>
   </g>
   <g id="patch_44">
    <path clip-path="url(#p519a6fd301)" d="M 938.436335 518.328179 
L 939.139812 518.328179 
L 939.139812 540.39998 
L 938.436335 540.39998 
z
" style="fill:#ff0000;"/>
   </g>
   <g id="patch_45">
    <path clip-path="url(#p519a6fd301)" d="M 942.856408 518.328179 
L 943.559884 518.328179 
L 943.559884 533.018619 
L 942.856408 533.018619 
z
" style="fill:#ff0000;"/>
   </g>
   <g id="patch_46">
    <path clip-path="url(#p519a6fd301)" d="M 947.276481 518.328179 
L 947.979957 518.328179 
L 947.979957 502.413534 
L 947.276481 502.413534 
z
" style="fill:#ff0000;"/>
   </g>
   <g id="patch_47">
    <path clip-path="url(#p519a6fd301)" d="M 951.696553 518.328179 
L 952.40003 518.328179 
L 952.40003 490.236795 
L 951.696553 490.236795 
z
" style="fill:#ff0000;"/>
   </g>
   <g id="patch_48">
    <path clip-path="url(#p519a6fd301)" d="M 956.116626 518.328179 
L 956.820102 518.328179 
L 956.820102 518.328179 
L 956.116626 518.328179 
z
" style="fill:#ff0000;"/>
   </g>
   <g id="patch_49">
    <path clip-path="url(#p519a6fd301)" d="M 960.536699 518.328179 
L 961.240175 518.328179 
L 961.240175 552.662092 
L 960.536699 552.662092 
z
" style="fill:#ff0000;"/>
   </g>
   <g id="patch_50">
    <path clip-path="url(#p519a6fd301)" d="M 964.956771 518.328179 
L 965.660248 518.328179 
L 965.660248 542.200145 
L 964.956771 542.200145 
z
" style="fill:#ff0000;"/>
   </g>
   <g id="patch_51">
    <path clip-path="url(#p519a6fd301)" d="M 969.376844 518.328179 
L 970.08032 518.328179 
L 970.08032 491.045931 
L 969.376844 491.045931 
z
" style="fill:#ff0000;"/>
   </g>
   <g id="patch_52">
    <path clip-path="url(#p519a6fd301)" d="M 973.796917 518.328179 
L 974.500393 518.328179 
L 974.500393 466.827308 
L 973.796917 466.827308 
z
" style="fill:#ff0000;"/>
   </g>
   <g id="patch_53">
    <path clip-path="url(#p519a6fd301)" d="M 978.216989 518.328179 
L 978.920466 518.328179 
L 978.920466 518.328179 
L 978.216989 518.328179 
z
" style="fill:#ff0000;"/>
   </g>
   <g id="patch_54">
    <path clip-path="url(#p519a6fd301)" d="M 982.637062 518.328179 
L 983.340538 518.328179 
L 983.340538 595.579484 
L 982.637062 595.579484 
z
" style="fill:#ff0000;"/>
   </g>
   <g id="patch_55">
    <path clip-path="url(#p519a6fd301)" d="M 987.057135 518.328179 
L 987.760611 518.328179 
L 987.760611 581.986755 
L 987.057135 581.986755 
z
" style="fill:#ff0000;"/>
   </g>
   <g id="patch_56">
    <path clip-path="url(#p519a6fd301)" d="M 991.477207 518.328179 
L 992.180684 518.328179 
L 992.180684 422.840313 
L 991.477207 422.840313 
z
" style="fill:#ff0000;"/>
   </g>
   <g id="patch_57">
    <path clip-path="url(#p519a6fd301)" d="M 995.89728 518.328179 
L 996.600756 518.328179 
L 996.600756 209.322956 
L 995.89728 209.322956 
z
" style="fill:#ff0000;"/>
   </g>
   <g id="patch_58">
    <path clip-path="url(#p519a6fd301)" d="M 1000.317353 518.328179 
L 1001.020829 518.328179 
L 1001.020829 110.0376 
L 1000.317353 110.0376 
z
" style="fill:#ff0000;"/>
   </g>
   <g id="patch_59">
    <path clip-path="url(#p519a6fd301)" d="M 1004.737425 518.328179 
L 1005.440902 518.328179 
L 1005.440902 209.322956 
L 1004.737425 209.322956 
z
" style="fill:#ff0000;"/>
   </g>
   <g id="patch_60">
    <path clip-path="url(#p519a6fd301)" d="M 1009.157498 518.328179 
L 1009.860974 518.328179 
L 1009.860974 422.840313 
L 1009.157498 422.840313 
z
" style="fill:#ff0000;"/>
   </g>
   <g id="patch_61">
    <path clip-path="url(#p519a6fd301)" d="M 1013.577571 518.328179 
L 1014.281047 518.328179 
L 1014.281047 581.986755 
L 1013.577571 581.986755 
z
" style="fill:#ff0000;"/>
   </g>
   <g id="patch_62">
    <path clip-path="url(#p519a6fd301)" d="M 1017.997643 518.328179 
L 1018.70112 518.328179 
L 1018.70112 595.579484 
L 1017.997643 595.579484 
z
" style="fill:#ff0000;"/>
   </g>
   <g id="patch_63">
    <path clip-path="url(#p519a6fd301)" d="M 1022.417716 518.328179 
L 1023.121192 518.328179 
L 1023.121192 518.328179 
L 1022.417716 518.328179 
z
" style="fill:#ff0000;"/>
   </g>
   <g id="patch_64">
    <path clip-path="url(#p519a6fd301)" d="M 1026.837789 518.328179 
L 1027.541265 518.328179 
L 1027.541265 466.827308 
L 1026.837789 466.827308 
z
" style="fill:#ff0000;"/>
   </g>
   <g id="patch_65">
    <path clip-path="url(#p519a6fd301)" d="M 1031.257861 518.328179 
L 1031.961338 518.328179 
L 1031.961338 491.045931 
L 1031.257861 491.045931 
z
" style="fill:#ff0000;"/>
   </g>
   <g id="patch_66">
    <path clip-path="url(#p519a6fd301)" d="M 1035.677934 518.328179 
L 1036.381411 518.328179 
L 1036.381411 542.200145 
L 1035.677934 542.200145 
z
" style="fill:#ff0000;"/>
   </g>
   <g id="patch_67">
    <path clip-path="url(#p519a6fd301)" d="M 1040.098007 518.328179 
L 1040.801483 518.328179 
L 1040.801483 552.662092 
L 1040.098007 552.662092 
z
" style="fill:#ff0000;"/>
   </g>
   <g id="patch_68">
    <path clip-path="url(#p519a6fd301)" d="M 1044.518079 518.328179 
L 1045.221556 518.328179 
L 1045.221556 518.328179 
L 1044.518079 518.328179 
z
" style="fill:#ff0000;"/>
   </g>
   <g id="patch_69">
    <path clip-path="url(#p519a6fd301)" d="M 1048.938152 518.328179 
L 1049.641629 518.328179 
L 1049.641629 490.236795 
L 1048.938152 490.236795 
z
" style="fill:#ff0000;"/>
   </g>
   <g id="patch_70">
    <path clip-path="url(#p519a6fd301)" d="M 1053.358225 518.328179 
L 1054.061701 518.328179 
L 1054.061701 502.413534 
L 1053.358225 502.413534 
z
" style="fill:#ff0000;"/>
   </g>
   <g id="patch_71">
    <path clip-path="url(#p519a6fd301)" d="M 1057.778297 518.328179 
L 1058.481774 518.328179 
L 1058.481774 533.018619 
L 1057.778297 533.018619 
z
" style="fill:#ff0000;"/>
   </g>
   <g id="patch_72">
    <path clip-path="url(#p519a6fd301)" d="M 1062.19837 518.328179 
L 1062.901847 518.328179 
L 1062.901847 540.39998 
L 1062.19837 540.39998 
z
" style="fill:#ff0000;"/>
   </g>
   <g id="patch_73">
    <path clip-path="url(#p519a6fd301)" d="M 1066.618443 518.328179 
L 1067.321919 518.328179 
L 1067.321919 518.328179 
L 1066.618443 518.328179 
z
" style="fill:#ff0000;"/>
   </g>
   <g id="patch_74">
    <path clip-path="url(#p519a6fd301)" d="M 1071.038515 518.328179 
L 1071.741992 518.328179 
L 1071.741992 499.015352 
L 1071.038515 499.015352 
z
" style="fill:#ff0000;"/>
   </g>
   <g id="patch_75">
    <path clip-path="url(#p519a6fd301)" d="M 1075.458588 518.328179 
L 1076.162065 518.328179 
L 1076.162065 507.094312 
L 1075.458588 507.094312 
z
" style="fill:#ff0000;"/>
   </g>
   <g id="patch_76">
    <path clip-path="url(#p519a6fd301)" d="M 1079.878661 518.328179 
L 1080.582137 518.328179 
L 1080.582137 528.937941 
L 1079.878661 528.937941 
z
" style="fill:#ff0000;"/>
   </g>
   <g id="patch_77">
    <path clip-path="url(#p519a6fd301)" d="M 1084.298734 518.328179 
L 1085.00221 518.328179 
L 1085.00221 534.591611 
L 1084.298734 534.591611 
z
" style="fill:#ff0000;"/>
   </g>
   <g id="patch_78">
    <path clip-path="url(#p519a6fd301)" d="M 1088.718806 518.328179 
L 1089.422283 518.328179 
L 1089.422283 518.328179 
L 1088.718806 518.328179 
z
" style="fill:#ff0000;"/>
   </g>
   <g id="patch_79">
    <path clip-path="url(#p519a6fd301)" d="M 1093.138879 518.328179 
L 1093.842355 518.328179 
L 1093.842355 503.613644 
L 1093.138879 503.613644 
z
" style="fill:#ff0000;"/>
   </g>
   <g id="patch_80">
    <path clip-path="url(#p519a6fd301)" d="M 1097.558952 518.328179 
L 1098.262428 518.328179 
L 1098.262428 509.647464 
L 1097.558952 509.647464 
z
" style="fill:#ff0000;"/>
   </g>
   <g id="patch_81">
    <path clip-path="url(#p519a6fd301)" d="M 1101.979024 518.328179 
L 1102.682501 518.328179 
L 1102.682501 526.631471 
L 1101.979024 526.631471 
z
" style="fill:#ff0000;"/>
   </g>
   <g id="patch_82">
    <path clip-path="url(#p519a6fd301)" d="M 1106.399097 518.328179 
L 1107.102573 518.328179 
L 1107.102573 531.203396 
L 1106.399097 531.203396 
z
" style="fill:#ff0000;"/>
   </g>
   <g id="patch_83">
    <path clip-path="url(#p519a6fd301)" d="M 1110.81917 518.328179 
L 1111.522646 518.328179 
L 1111.522646 518.328179 
L 1110.81917 518.328179 
z
" style="fill:#ff0000;"/>
   </g>
   <g id="patch_84">
    <path clip-path="url(#p519a6fd301)" d="M 1115.239242 518.328179 
L 1115.942719 518.328179 
L 1115.942719 506.443362 
L 1115.239242 506.443362 
z
" style="fill:#ff0000;"/>
   </g>
   <g id="patch_85">
    <path clip-path="url(#p519a6fd301)" d="M 1119.659315 518.328179 
L 1120.362791 518.328179 
L 1120.362791 511.255003 
L 1119.659315 511.255003 
z
" style="fill:#ff0000;"/>
   </g>
   <g id="patch_86">
    <path clip-path="url(#p519a6fd301)" d="M 1124.079388 518.328179 
L 1124.782864 518.328179 
L 1124.782864 525.14874 
L 1124.079388 525.14874 
z
" style="fill:#ff0000;"/>
   </g>
   <g id="patch_87">
    <path clip-path="url(#p519a6fd301)" d="M 1128.49946 518.328179 
L 1129.202937 518.328179 
L 1129.202937 528.983531 
L 1128.49946 528.983531 
z
" style="fill:#ff0000;"/>
   </g>
   <g id="patch_88">
    <path clip-path="url(#p519a6fd301)" d="M 1132.919533 518.328179 
L 1133.623009 518.328179 
L 1133.623009 518.328179 
L 1132.919533 518.328179 
z
" style="fill:#ff0000;"/>
   </g>
   <g id="patch_89">
    <path clip-path="url(#p519a6fd301)" d="M 1137.339606 518.328179 
L 1138.043082 518.328179 
L 1138.043082 508.360268 
L 1137.339606 508.360268 
z
" style="fill:#ff0000;"/>
   </g>
   <g id="patch_90">
    <path clip-path="url(#p519a6fd301)" d="M 1141.759678 518.328179 
L 1142.463155 518.328179 
L 1142.463155 512.360187 
L 1141.759678 512.360187 
z
" style="fill:#ff0000;"/>
   </g>
   <g id="patch_91">
    <path clip-path="url(#p519a6fd301)" d="M 1146.179751 518.328179 
L 1146.883227 518.328179 
L 1146.883227 524.115322 
L 1146.179751 524.115322 
z
" style="fill:#ff0000;"/>
   </g>
   <g id="patch_92">
    <path clip-path="url(#p519a6fd301)" d="M 1150.599824 518.328179 
L 1151.3033 518.328179 
L 1151.3033 527.416567 
L 1150.599824 527.416567 
z
" style="fill:#ff0000;"/>
   </g>
   <g id="patch_93">
    <path clip-path="url(#p519a6fd301)" d="M 1155.019896 518.328179 
L 1155.723373 518.328179 
L 1155.723373 518.328179 
L 1155.019896 518.328179 
z
" style="fill:#ff0000;"/>
   </g>
   <g id="patch_94">
    <path clip-path="url(#p519a6fd301)" d="M 1159.439969 518.328179 
L 1160.143445 518.328179 
L 1160.143445 509.7447 
L 1159.439969 509.7447 
z
" style="fill:#ff0000;"/>
   </g>
   <g id="patch_95">
    <path clip-path="url(#p519a6fd301)" d="M 1163.860042 518.328179 
L 1164.563518 518.328179 
L 1164.563518 513.166672 
L 1163.860042 513.166672 
z
" style="fill:#ff0000;"/>
   </g>
   <g id="patch_96">
    <path clip-path="url(#p519a6fd301)" d="M 1168.280114 518.328179 
L 1168.983591 518.328179 
L 1168.983591 523.353856 
L 1168.280114 523.353856 
z
" style="fill:#ff0000;"/>
   </g>
   <g id="patch_97">
    <path clip-path="url(#p519a6fd301)" d="M 1172.700187 518.328179 
L 1173.403663 518.328179 
L 1173.403663 526.251389 
L 1172.700187 526.251389 
z
" style="fill:#ff0000;"/>
   </g>
   <g id="patch_98">
    <path clip-path="url(#p519a6fd301)" d="M 1177.12026 518.328179 
L 1177.823736 518.328179 
L 1177.823736 518.328179 
L 1177.12026 518.328179 
z
" style="fill:#ff0000;"/>
   </g>
   <g id="patch_99">
    <path clip-path="url(#p519a6fd301)" d="M 1181.540332 518.328179 
L 1182.243809 518.328179 
L 1182.243809 510.791466 
L 1181.540332 510.791466 
z
" style="fill:#ff0000;"/>
   </g>
   <g id="patch_100">
    <path clip-path="url(#p519a6fd301)" d="M 1185.960405 518.328179 
L 1186.663881 518.328179 
L 1186.663881 513.781137 
L 1185.960405 513.781137 
z
" style="fill:#ff0000;"/>
   </g>
   <g id="patch_101">
    <path clip-path="url(#p519a6fd301)" d="M 1190.380478 518.328179 
L 1191.083954 518.328179 
L 1191.083954 522.769475 
L 1190.380478 522.769475 
z
" style="fill:#ff0000;"/>
   </g>
   <g id="patch_102">
    <path clip-path="url(#p519a6fd301)" d="M 1194.80055 518.328179 
L 1195.504027 518.328179 
L 1195.504027 525.351025 
L 1194.80055 525.351025 
z
" style="fill:#ff0000;"/>
   </g>
   <g id="patch_103">
    <path clip-path="url(#p519a6fd301)" d="M 1199.220623 518.328179 
L 1199.924099 518.328179 
L 1199.924099 518.328179 
L 1199.220623 518.328179 
z
" style="fill:#ff0000;"/>
   </g>
   <g id="patch_104">
    <path clip-path="url(#p519a6fd301)" d="M 1203.640696 518.328179 
L 1204.344172 518.328179 
L 1204.344172 511.610674 
L 1203.640696 511.610674 
z
" style="fill:#ff0000;"/>
   </g>
   <g id="patch_105">
    <path clip-path="url(#p519a6fd301)" d="M 1208.060768 518.328179 
L 1208.764245 518.328179 
L 1208.764245 514.264865 
L 1208.060768 514.264865 
z
" style="fill:#ff0000;"/>
   </g>
   <g id="patch_106">
    <path clip-path="url(#p519a6fd301)" d="M 1212.480841 518.328179 
L 1213.184317 518.328179 
L 1213.184317 522.30684 
L 1212.480841 522.30684 
z
" style="fill:#ff0000;"/>
   </g>
   <g id="patch_107">
    <path clip-path="url(#p519a6fd301)" d="M 1216.900914 518.328179 
L 1217.60439 518.328179 
L 1217.60439 524.634408 
L 1216.900914 524.634408 
z
" style="fill:#ff0000;"/>
   </g>
   <g id="patch_108">
    <path clip-path="url(#p519a6fd301)" d="M 1221.320986 518.328179 
L 1222.024463 518.328179 
L 1222.024463 518.328179 
L 1221.320986 518.328179 
z
" style="fill:#ff0000;"/>
   </g>
   <g id="matplotlib.axis_3">
    <g id="xtick_6">
     <g id="line2d_24">
      <path clip-path="url(#p519a6fd301)" d="M 789.626166 631.8288 
L 789.626166 85.1904 
" style="fill:none;stroke:#b0b0b0;stroke-linecap:square;stroke-width:0.8;"/>
     </g>
     <g id="line2d_25">
      <g>
       <use style="stroke:#000000;stroke-width:0.8;" x="789.626166" xlink:href="#m44740d02ce" y="631.8288"/>
      </g>
     </g>
     <g id="text_15">
      <!-- -60 -->
      <g transform="translate(782.126166 645.7038)scale(0.1 -0.1)">
       <use xlink:href="#SimHei-45"/>
       <use x="50" xlink:href="#SimHei-54"/>
       <use x="100" xlink:href="#SimHei-48"/>
      </g>
     </g>
    </g>
    <g id="xtick_7">
     <g id="line2d_26">
      <path clip-path="url(#p519a6fd301)" d="M 859.973808 631.8288 
L 859.973808 85.1904 
" style="fill:none;stroke:#b0b0b0;stroke-linecap:square;stroke-width:0.8;"/>
     </g>
     <g id="line2d_27">
      <g>
       <use style="stroke:#000000;stroke-width:0.8;" x="859.973808" xlink:href="#m44740d02ce" y="631.8288"/>
      </g>
     </g>
     <g id="text_16">
      <!-- -40 -->
      <g transform="translate(852.473808 645.7038)scale(0.1 -0.1)">
       <use xlink:href="#SimHei-45"/>
       <use x="50" xlink:href="#SimHei-52"/>
       <use x="100" xlink:href="#SimHei-48"/>
      </g>
     </g>
    </g>
    <g id="xtick_8">
     <g id="line2d_28">
      <path clip-path="url(#p519a6fd301)" d="M 930.321449 631.8288 
L 930.321449 85.1904 
" style="fill:none;stroke:#b0b0b0;stroke-linecap:square;stroke-width:0.8;"/>
     </g>
     <g id="line2d_29">
      <g>
       <use style="stroke:#000000;stroke-width:0.8;" x="930.321449" xlink:href="#m44740d02ce" y="631.8288"/>
      </g>
     </g>
     <g id="text_17">
      <!-- -20 -->
      <g transform="translate(922.821449 645.7038)scale(0.1 -0.1)">
       <use xlink:href="#SimHei-45"/>
       <use x="50" xlink:href="#SimHei-50"/>
       <use x="100" xlink:href="#SimHei-48"/>
      </g>
     </g>
    </g>
    <g id="xtick_9">
     <g id="line2d_30">
      <path clip-path="url(#p519a6fd301)" d="M 1000.669091 631.8288 
L 1000.669091 85.1904 
" style="fill:none;stroke:#b0b0b0;stroke-linecap:square;stroke-width:0.8;"/>
     </g>
     <g id="line2d_31">
      <g>
       <use style="stroke:#000000;stroke-width:0.8;" x="1000.669091" xlink:href="#m44740d02ce" y="631.8288"/>
      </g>
     </g>
     <g id="text_18">
      <!-- 0 -->
      <g transform="translate(998.169091 645.7038)scale(0.1 -0.1)">
       <use xlink:href="#SimHei-48"/>
      </g>
     </g>
    </g>
    <g id="xtick_10">
     <g id="line2d_32">
      <path clip-path="url(#p519a6fd301)" d="M 1071.016732 631.8288 
L 1071.016732 85.1904 
" style="fill:none;stroke:#b0b0b0;stroke-linecap:square;stroke-width:0.8;"/>
     </g>
     <g id="line2d_33">
      <g>
       <use style="stroke:#000000;stroke-width:0.8;" x="1071.016732" xlink:href="#m44740d02ce" y="631.8288"/>
      </g>
     </g>
     <g id="text_19">
      <!-- 20 -->
      <g transform="translate(1066.016732 645.7038)scale(0.1 -0.1)">
       <use xlink:href="#SimHei-50"/>
       <use x="50" xlink:href="#SimHei-48"/>
      </g>
     </g>
    </g>
    <g id="xtick_11">
     <g id="line2d_34">
      <path clip-path="url(#p519a6fd301)" d="M 1141.364374 631.8288 
L 1141.364374 85.1904 
" style="fill:none;stroke:#b0b0b0;stroke-linecap:square;stroke-width:0.8;"/>
     </g>
     <g id="line2d_35">
      <g>
       <use style="stroke:#000000;stroke-width:0.8;" x="1141.364374" xlink:href="#m44740d02ce" y="631.8288"/>
      </g>
     </g>
     <g id="text_20">
      <!-- 40 -->
      <g transform="translate(1136.364374 645.7038)scale(0.1 -0.1)">
       <use xlink:href="#SimHei-52"/>
       <use x="50" xlink:href="#SimHei-48"/>
      </g>
     </g>
    </g>
    <g id="xtick_12">
     <g id="line2d_36">
      <path clip-path="url(#p519a6fd301)" d="M 1211.712015 631.8288 
L 1211.712015 85.1904 
" style="fill:none;stroke:#b0b0b0;stroke-linecap:square;stroke-width:0.8;"/>
     </g>
     <g id="line2d_37">
      <g>
       <use style="stroke:#000000;stroke-width:0.8;" x="1211.712015" xlink:href="#m44740d02ce" y="631.8288"/>
      </g>
     </g>
     <g id="text_21">
      <!-- 60 -->
      <g transform="translate(1206.712015 645.7038)scale(0.1 -0.1)">
       <use xlink:href="#SimHei-54"/>
       <use x="50" xlink:href="#SimHei-48"/>
      </g>
     </g>
    </g>
    <g id="text_22">
     <!-- w -->
     <defs>
      <path d="M 48.046875 45.703125 
L 38.28125 1.171875 
L 30.859375 1.171875 
L 24.609375 35.15625 
L 23.828125 35.15625 
L 17.578125 1.171875 
L 10.15625 1.171875 
L 0.390625 45.703125 
L 8.59375 45.703125 
L 13.671875 16.40625 
L 14.453125 16.40625 
L 19.921875 45.703125 
L 28.515625 45.703125 
L 33.984375 16.40625 
L 34.765625 16.40625 
L 39.84375 45.703125 
z
" id="SimHei-119"/>
     </defs>
     <g transform="translate(998.169091 657.8288)scale(0.1 -0.1)">
      <use xlink:href="#SimHei-119"/>
     </g>
    </g>
   </g>
   <g id="matplotlib.axis_4">
    <g id="ytick_7">
     <g id="line2d_38">
      <path clip-path="url(#p519a6fd301)" d="M 757.178182 599.555008 
L 1244.16 599.555008 
" style="fill:none;stroke:#b0b0b0;stroke-linecap:square;stroke-width:0.8;"/>
     </g>
     <g id="line2d_39">
      <g>
       <use style="stroke:#000000;stroke-width:0.8;" x="757.178182" xlink:href="#m9ee9ef0d3f" y="599.555008"/>
      </g>
     </g>
     <g id="text_23">
      <!-- -0.5 -->
      <defs>
       <path d="M 8.59375 20.703125 
Q 11.328125 10.15625 17.96875 8.984375 
Q 24.609375 7.8125 28.703125 10.34375 
Q 32.8125 12.890625 34.5625 16.984375 
Q 36.328125 21.09375 36.125 26.171875 
Q 35.9375 31.25 33.390625 34.765625 
Q 30.859375 38.28125 26.953125 39.453125 
Q 23.046875 40.625 18.15625 39.453125 
Q 13.28125 38.28125 10.15625 33.984375 
L 3.515625 34.765625 
Q 4.296875 37.109375 10.9375 68.359375 
L 41.796875 68.359375 
L 41.796875 61.328125 
L 16.796875 61.328125 
Q 14.84375 50.78125 12.890625 44.53125 
Q 18.75 47.265625 23.828125 47.0625 
Q 28.90625 46.875 33.59375 44.71875 
Q 38.28125 42.578125 40.421875 38.859375 
Q 42.578125 35.15625 43.546875 31.4375 
Q 44.53125 27.734375 44.328125 23.4375 
Q 44.140625 19.140625 42.578125 14.640625 
Q 41.015625 10.15625 37.890625 7.21875 
Q 34.765625 4.296875 30.265625 2.53125 
Q 25.78125 0.78125 19.921875 1.171875 
Q 14.0625 1.5625 8.78125 5.46875 
Q 3.515625 9.375 1.5625 18.75 
z
" id="SimHei-53"/>
      </defs>
      <g transform="translate(730.178182 602.992508)scale(0.1 -0.1)">
       <use xlink:href="#SimHei-45"/>
       <use x="50" xlink:href="#SimHei-48"/>
       <use x="100" xlink:href="#SimHei-46"/>
       <use x="150" xlink:href="#SimHei-53"/>
      </g>
     </g>
    </g>
    <g id="ytick_8">
     <g id="line2d_40">
      <path clip-path="url(#p519a6fd301)" d="M 757.178182 518.328179 
L 1244.16 518.328179 
" style="fill:none;stroke:#b0b0b0;stroke-linecap:square;stroke-width:0.8;"/>
     </g>
     <g id="line2d_41">
      <g>
       <use style="stroke:#000000;stroke-width:0.8;" x="757.178182" xlink:href="#m9ee9ef0d3f" y="518.328179"/>
      </g>
     </g>
     <g id="text_24">
      <!-- 0.0 -->
      <g transform="translate(735.178182 521.765679)scale(0.1 -0.1)">
       <use xlink:href="#SimHei-48"/>
       <use x="50" xlink:href="#SimHei-46"/>
       <use x="100" xlink:href="#SimHei-48"/>
      </g>
     </g>
    </g>
    <g id="ytick_9">
     <g id="line2d_42">
      <path clip-path="url(#p519a6fd301)" d="M 757.178182 437.101349 
L 1244.16 437.101349 
" style="fill:none;stroke:#b0b0b0;stroke-linecap:square;stroke-width:0.8;"/>
     </g>
     <g id="line2d_43">
      <g>
       <use style="stroke:#000000;stroke-width:0.8;" x="757.178182" xlink:href="#m9ee9ef0d3f" y="437.101349"/>
      </g>
     </g>
     <g id="text_25">
      <!-- 0.5 -->
      <g transform="translate(735.178182 440.538849)scale(0.1 -0.1)">
       <use xlink:href="#SimHei-48"/>
       <use x="50" xlink:href="#SimHei-46"/>
       <use x="100" xlink:href="#SimHei-53"/>
      </g>
     </g>
    </g>
    <g id="ytick_10">
     <g id="line2d_44">
      <path clip-path="url(#p519a6fd301)" d="M 757.178182 355.874519 
L 1244.16 355.874519 
" style="fill:none;stroke:#b0b0b0;stroke-linecap:square;stroke-width:0.8;"/>
     </g>
     <g id="line2d_45">
      <g>
       <use style="stroke:#000000;stroke-width:0.8;" x="757.178182" xlink:href="#m9ee9ef0d3f" y="355.874519"/>
      </g>
     </g>
     <g id="text_26">
      <!-- 1.0 -->
      <g transform="translate(735.178182 359.312019)scale(0.1 -0.1)">
       <use xlink:href="#SimHei-49"/>
       <use x="50" xlink:href="#SimHei-46"/>
       <use x="100" xlink:href="#SimHei-48"/>
      </g>
     </g>
    </g>
    <g id="ytick_11">
     <g id="line2d_46">
      <path clip-path="url(#p519a6fd301)" d="M 757.178182 274.647689 
L 1244.16 274.647689 
" style="fill:none;stroke:#b0b0b0;stroke-linecap:square;stroke-width:0.8;"/>
     </g>
     <g id="line2d_47">
      <g>
       <use style="stroke:#000000;stroke-width:0.8;" x="757.178182" xlink:href="#m9ee9ef0d3f" y="274.647689"/>
      </g>
     </g>
     <g id="text_27">
      <!-- 1.5 -->
      <g transform="translate(735.178182 278.085189)scale(0.1 -0.1)">
       <use xlink:href="#SimHei-49"/>
       <use x="50" xlink:href="#SimHei-46"/>
       <use x="100" xlink:href="#SimHei-53"/>
      </g>
     </g>
    </g>
    <g id="ytick_12">
     <g id="line2d_48">
      <path clip-path="url(#p519a6fd301)" d="M 757.178182 193.42086 
L 1244.16 193.42086 
" style="fill:none;stroke:#b0b0b0;stroke-linecap:square;stroke-width:0.8;"/>
     </g>
     <g id="line2d_49">
      <g>
       <use style="stroke:#000000;stroke-width:0.8;" x="757.178182" xlink:href="#m9ee9ef0d3f" y="193.42086"/>
      </g>
     </g>
     <g id="text_28">
      <!-- 2.0 -->
      <g transform="translate(735.178182 196.85836)scale(0.1 -0.1)">
       <use xlink:href="#SimHei-50"/>
       <use x="50" xlink:href="#SimHei-46"/>
       <use x="100" xlink:href="#SimHei-48"/>
      </g>
     </g>
    </g>
    <g id="ytick_13">
     <g id="line2d_50">
      <path clip-path="url(#p519a6fd301)" d="M 757.178182 112.19403 
L 1244.16 112.19403 
" style="fill:none;stroke:#b0b0b0;stroke-linecap:square;stroke-width:0.8;"/>
     </g>
     <g id="line2d_51">
      <g>
       <use style="stroke:#000000;stroke-width:0.8;" x="757.178182" xlink:href="#m9ee9ef0d3f" y="112.19403"/>
      </g>
     </g>
     <g id="text_29">
      <!-- 2.5 -->
      <g transform="translate(735.178182 115.63153)scale(0.1 -0.1)">
       <use xlink:href="#SimHei-50"/>
       <use x="50" xlink:href="#SimHei-46"/>
       <use x="100" xlink:href="#SimHei-53"/>
      </g>
     </g>
    </g>
    <g id="text_30">
     <!-- F(w) -->
     <defs>
      <path d="M 45.703125 61.328125 
L 13.671875 61.328125 
L 13.671875 39.453125 
L 37.890625 39.453125 
L 37.890625 32.03125 
L 13.671875 32.03125 
L 13.671875 1.953125 
L 4.6875 1.953125 
L 4.6875 68.75 
L 45.703125 68.75 
z
" id="SimHei-70"/>
     </defs>
     <g transform="translate(724.928182 368.5096)rotate(-90)scale(0.1 -0.1)">
      <use xlink:href="#SimHei-70"/>
      <use x="50" xlink:href="#SimHei-40"/>
      <use x="100" xlink:href="#SimHei-119"/>
      <use x="150" xlink:href="#SimHei-41"/>
     </g>
    </g>
   </g>
   <g id="line2d_52">
    <path clip-path="url(#p519a6fd301)" d="M 779.665457 518.328179 
L 781.875494 522.186274 
L 782.759508 523.406178 
L 783.643523 524.315652 
L 784.527537 524.854811 
L 785.411552 524.986622 
L 786.295566 524.69942 
L 787.179581 524.007854 
L 788.063595 522.952178 
L 789.389617 520.830404 
L 793.80969 512.978918 
L 794.693704 512.019489 
L 795.577719 511.449896 
L 796.461733 511.30943 
L 797.345748 511.610674 
L 798.229762 512.338477 
L 799.113777 513.450671 
L 800.439799 515.687862 
L 804.859871 523.979316 
L 805.743886 524.994504 
L 806.627901 525.598163 
L 807.069908 525.731516 
L 807.511915 525.748457 
L 807.953922 525.648186 
L 808.837937 525.102025 
L 809.721951 524.123211 
L 810.605966 522.769475 
L 811.931988 520.220478 
L 815.026039 513.781137 
L 815.910053 512.339054 
L 816.794068 511.261233 
L 817.678082 510.619185 
L 818.120089 510.476697 
L 818.562097 510.45764 
L 819.004104 510.562915 
L 819.888119 511.140283 
L 820.772133 512.177186 
L 821.656148 513.612728 
L 822.982169 516.318199 
L 826.07622 523.163007 
L 826.960235 524.69829 
L 827.844249 525.846975 
L 828.728264 526.532608 
L 829.170271 526.685555 
L 829.612278 526.70715 
L 830.054286 526.596373 
L 830.496293 526.354288 
L 831.380307 525.490798 
L 832.264322 524.165826 
L 833.148337 522.458134 
L 834.916366 518.328179 
L 837.126402 513.166672 
L 838.010417 511.525315 
L 838.894431 510.295803 
L 839.778446 509.560258 
L 840.220453 509.395226 
L 840.66246 509.370549 
L 841.104467 509.487394 
L 841.546475 509.7447 
L 842.430489 510.665376 
L 843.314504 512.080584 
L 844.198518 513.90656 
L 845.52454 517.168017 
L 848.176584 523.863707 
L 849.060598 525.626878 
L 849.944613 526.949438 
L 850.828627 527.742701 
L 851.270635 527.921853 
L 851.712642 527.950321 
L 852.154649 527.826759 
L 852.596656 527.552215 
L 853.480671 526.566266 
L 854.364685 525.047646 
L 855.2487 523.085786 
L 856.574722 519.57731 
L 859.226765 512.360187 
L 860.11078 510.455682 
L 860.994794 509.024858 
L 861.878809 508.164092 
L 862.320816 507.968236 
L 862.762823 507.935032 
L 863.204831 508.066046 
L 863.646838 508.360268 
L 864.530853 509.421415 
L 865.414867 511.059735 
L 866.298882 513.17932 
L 867.624903 516.975299 
L 870.276947 524.801932 
L 871.160962 526.87239 
L 872.044976 528.430754 
L 872.928991 529.371511 
L 873.370998 529.587421 
L 873.813005 529.626652 
L 874.255012 529.487351 
L 874.69702 529.170467 
L 875.139027 528.679761 
L 876.023042 527.205675 
L 876.907056 525.14874 
L 878.233078 521.245188 
L 881.769136 510.059987 
L 882.653151 508.05371 
L 883.537165 506.667604 
L 883.979172 506.239076 
L 884.42118 505.998666 
L 884.863187 505.951606 
L 885.305194 506.10012 
L 885.747201 506.443362 
L 886.189209 506.977409 
L 887.073223 508.587113 
L 887.957238 510.838934 
L 889.28326 515.121783 
L 892.819318 527.443521 
L 893.703332 529.66406 
L 894.587347 531.203396 
L 895.029354 531.681832 
L 895.471361 531.952808 
L 895.913369 532.010296 
L 896.355376 531.851582 
L 896.797383 531.477337 
L 897.23939 530.891637 
L 898.123405 529.118928 
L 899.007419 526.631471 
L 900.333441 521.887701 
L 903.869499 508.172272 
L 904.753514 505.68632 
L 905.637528 503.955843 
L 906.079536 503.414519 
L 906.521543 503.104414 
L 906.96355 503.032604 
L 907.405557 503.202476 
L 907.847565 503.613644 
L 908.289572 504.261914 
L 909.173587 506.234198 
L 910.057601 509.012289 
L 911.383623 514.328121 
L 914.919681 529.792837 
L 915.803696 532.616112 
L 916.68771 534.591611 
L 917.129717 535.214545 
L 917.571725 535.57638 
L 918.013732 535.668616 
L 918.455739 535.486905 
L 918.897746 535.031164 
L 919.339754 534.305621 
L 920.223768 532.08342 
L 921.107783 528.937941 
L 922.433805 522.893216 
L 925.969863 505.167565 
L 926.853877 501.901333 
L 927.737892 499.600589 
L 928.179899 498.867671 
L 928.621906 498.434547 
L 929.063914 498.311747 
L 929.505921 498.505053 
L 929.947928 499.015352 
L 930.389935 499.83856 
L 931.27395 502.382612 
L 932.157964 506.007164 
L 933.483986 513.012312 
L 937.020044 533.773621 
L 937.904059 537.647075 
L 938.788073 540.39998 
L 939.230081 541.288777 
L 939.672088 541.825728 
L 940.114095 541.997243 
L 940.556103 541.795261 
L 940.99811 541.217454 
L 941.440117 540.267353 
L 942.324132 537.293739 
L 943.208146 533.018619 
L 944.092161 527.672426 
L 945.86019 515.044172 
L 947.628219 502.413534 
L 948.512233 497.112467 
L 949.396248 492.98465 
L 949.838255 491.458159 
L 950.280262 490.332361 
L 950.72227 489.632056 
L 951.164277 489.37584 
L 951.606284 489.575718 
L 952.048291 490.236795 
L 952.490299 491.357084 
L 952.932306 492.927408 
L 953.816321 497.345691 
L 954.700335 503.277669 
L 956.026357 514.296329 
L 959.120408 541.989281 
L 960.004422 548.146475 
L 960.888437 552.662092 
L 961.330444 554.187989 
L 961.772451 555.176609 
L 962.214459 555.600154 
L 962.656466 555.438913 
L 963.098473 554.681734 
L 963.54048 553.326385 
L 963.982488 551.379784 
L 964.866502 545.786742 
L 965.750517 538.141507 
L 967.076539 523.686295 
L 970.612597 481.51268 
L 971.496611 473.785007 
L 972.380626 468.460629 
L 972.822633 466.857355 
L 973.26464 466.02718 
L 973.706648 466.008127 
L 974.148655 466.827308 
L 974.590662 468.500224 
L 975.032669 471.030192 
L 975.916684 478.611328 
L 976.800698 489.342013 
L 977.684713 502.789493 
L 979.010735 526.638727 
L 981.662778 576.548037 
L 982.546793 590.03182 
L 983.430807 600.162106 
L 983.872815 603.661386 
L 984.314822 605.967689 
L 984.756829 606.9816 
L 985.198837 606.615385 
L 985.640844 604.794335 
L 986.082851 601.457973 
L 986.524858 596.561114 
L 987.408873 581.986755 
L 988.292887 561.044736 
L 989.176902 533.990365 
L 990.502924 483.197237 
L 991.828946 422.840313 
L 996.249018 209.322956 
L 997.57504 160.691904 
L 998.459055 136.376718 
L 999.343069 119.640307 
L 999.785076 114.322356 
L 1000.227084 111.11133 
L 1000.669091 110.0376 
L 1001.111098 111.11133 
L 1001.553105 114.322356 
L 1001.995113 119.640307 
L 1002.43712 127.014942 
L 1003.321135 147.63757 
L 1004.205149 175.417775 
L 1005.531171 228.189708 
L 1007.2992 312.324697 
L 1010.393251 463.961651 
L 1011.719273 518.328179 
L 1012.603287 548.254536 
L 1013.487302 572.302418 
L 1014.371316 590.074748 
L 1015.255331 601.457973 
L 1015.697338 604.794335 
L 1016.139345 606.615385 
L 1016.581353 606.9816 
L 1017.02336 605.967689 
L 1017.465367 603.661386 
L 1017.907374 600.162106 
L 1018.791389 590.03182 
L 1019.675403 576.548037 
L 1021.001425 552.355417 
L 1023.653469 502.789493 
L 1024.537483 489.342013 
L 1025.421498 478.611328 
L 1026.305512 471.030192 
L 1026.74752 468.500224 
L 1027.189527 466.827308 
L 1027.631534 466.008127 
L 1028.073541 466.02718 
L 1028.515549 466.857355 
L 1028.957556 468.460629 
L 1029.399563 470.788914 
L 1030.283578 477.383653 
L 1031.167592 486.094213 
L 1032.493614 501.716184 
L 1035.145658 533.662327 
L 1036.029672 542.200145 
L 1036.913687 548.858104 
L 1037.797701 553.326385 
L 1038.239709 554.681734 
L 1038.681716 555.438913 
L 1039.123723 555.600154 
L 1039.56573 555.176609 
L 1040.007738 554.187989 
L 1040.449745 552.662092 
L 1041.33376 548.146475 
L 1042.217774 541.989281 
L 1043.543796 530.658731 
L 1046.195839 506.71591 
L 1047.079854 500.140014 
L 1047.963869 494.931413 
L 1048.847883 491.357084 
L 1049.28989 490.236795 
L 1049.731898 489.575718 
L 1050.173905 489.37584 
L 1050.615912 489.632056 
L 1051.057919 490.332361 
L 1051.499927 491.458159 
L 1052.383941 494.881313 
L 1053.267956 499.637896 
L 1054.593978 508.524378 
L 1057.688028 530.461922 
L 1058.572043 535.306374 
L 1059.456057 538.954368 
L 1059.898065 540.267353 
L 1060.340072 541.217454 
L 1060.782079 541.795261 
L 1061.224087 541.997243 
L 1061.666094 541.825728 
L 1062.108101 541.288777 
L 1062.550108 540.39998 
L 1063.434123 537.647075 
L 1064.318137 533.773621 
L 1065.644159 526.464666 
L 1068.73821 508.164198 
L 1069.622225 504.070847 
L 1070.506239 500.965627 
L 1071.390254 499.015352 
L 1071.832261 498.505053 
L 1072.274268 498.311747 
L 1072.716275 498.434547 
L 1073.158283 498.867671 
L 1073.60029 499.600589 
L 1074.484305 501.901333 
L 1075.368319 505.167565 
L 1076.694341 511.37432 
L 1079.788392 527.072608 
L 1080.672406 530.616265 
L 1081.556421 533.318797 
L 1082.440435 535.031164 
L 1082.882443 535.486905 
L 1083.32445 535.668616 
L 1083.766457 535.57638 
L 1084.208464 535.214545 
L 1084.650472 534.591611 
L 1085.534486 532.616112 
L 1086.418501 529.792837 
L 1087.744523 524.399567 
L 1090.838573 510.65537 
L 1091.722588 507.531365 
L 1092.606603 505.139317 
L 1093.490617 503.613644 
L 1093.932624 503.202476 
L 1094.374632 503.032604 
L 1094.816639 503.104414 
L 1095.258646 503.414519 
L 1095.700653 503.955843 
L 1096.584668 505.68632 
L 1097.468682 508.172272 
L 1098.794704 512.940505 
L 1102.330762 526.631471 
L 1103.214777 529.118928 
L 1104.098791 530.891637 
L 1104.540799 531.477337 
L 1104.982806 531.851582 
L 1105.424813 532.010296 
L 1105.866821 531.952808 
L 1106.308828 531.681832 
L 1106.750835 531.203396 
L 1107.63485 529.66406 
L 1108.518864 527.443521 
L 1109.844886 523.170541 
L 1113.380944 510.838934 
L 1114.264959 508.587113 
L 1115.148973 506.977409 
L 1115.59098 506.443362 
L 1116.032988 506.10012 
L 1116.474995 505.951606 
L 1116.917002 505.998666 
L 1117.359009 506.239076 
L 1117.801017 506.667604 
L 1118.685031 508.05371 
L 1119.569046 510.059987 
L 1120.895068 513.930886 
L 1124.431126 525.14874 
L 1125.31514 527.205675 
L 1126.199155 528.679761 
L 1126.641162 529.170467 
L 1127.083169 529.487351 
L 1127.525177 529.626652 
L 1127.967184 529.587421 
L 1128.409191 529.371511 
L 1128.851198 528.983531 
L 1129.735213 527.722984 
L 1130.619228 525.893293 
L 1131.945249 522.355329 
L 1135.481307 512.066679 
L 1136.365322 510.173606 
L 1137.249337 508.814103 
L 1137.691344 508.360268 
L 1138.133351 508.066046 
L 1138.575358 507.935032 
L 1139.017366 507.968236 
L 1139.459373 508.164092 
L 1139.90138 508.518489 
L 1140.785395 509.674288 
L 1141.669409 511.355941 
L 1142.995431 514.613695 
L 1146.531489 524.115322 
L 1147.415504 525.868702 
L 1148.299518 527.130123 
L 1149.183533 527.826759 
L 1149.62554 527.950321 
L 1150.067547 527.921853 
L 1150.509555 527.742701 
L 1150.951562 527.416567 
L 1151.835576 526.349475 
L 1152.719591 524.793712 
L 1154.045613 521.775048 
L 1157.581671 512.948581 
L 1158.465685 511.315703 
L 1159.3497 510.139183 
L 1160.233714 509.487394 
L 1160.675722 509.370549 
L 1161.117729 509.395226 
L 1161.559736 509.560258 
L 1162.443751 510.295803 
L 1163.327765 511.525315 
L 1164.21178 513.166672 
L 1165.537802 516.161928 
L 1168.189845 522.458134 
L 1169.07386 524.165826 
L 1169.957874 525.490798 
L 1170.841889 526.354288 
L 1171.283896 526.596373 
L 1171.725903 526.70715 
L 1172.167911 526.685555 
L 1172.609918 526.532608 
L 1173.493932 525.846975 
L 1174.377947 524.69829 
L 1175.261962 523.163007 
L 1176.587983 520.358359 
L 1179.240027 514.45379 
L 1180.124041 512.849992 
L 1181.008056 511.604445 
L 1181.892071 510.791466 
L 1182.776085 510.45764 
L 1183.218092 510.476697 
L 1183.6601 510.619185 
L 1184.544114 511.261233 
L 1185.428129 512.339054 
L 1186.312143 513.781137 
L 1187.638165 516.417986 
L 1190.290209 521.976787 
L 1191.174223 523.488605 
L 1192.058238 524.663706 
L 1192.942252 525.431747 
L 1193.826267 525.748457 
L 1194.268274 525.731516 
L 1195.152289 525.351025 
L 1196.036303 524.534702 
L 1196.920318 523.337511 
L 1198.246339 521.003936 
L 1201.782398 514.13091 
L 1202.666412 512.850161 
L 1203.550427 511.923278 
L 1204.434441 511.405135 
L 1205.318456 511.324589 
L 1206.20247 511.682905 
L 1207.086485 512.45391 
L 1207.970499 513.585868 
L 1209.296521 515.794145 
L 1212.832579 522.30684 
L 1213.716594 523.522066 
L 1214.600608 524.402247 
L 1215.484623 524.895099 
L 1216.368637 524.972978 
L 1217.252652 524.634408 
L 1218.136666 523.903957 
L 1219.020681 522.830494 
L 1220.346703 520.734745 
L 1221.672725 518.328179 
L 1221.672725 518.328179 
" style="fill:none;stroke:#1f77b4;stroke-linecap:square;stroke-width:1.5;"/>
   </g>
   <g id="patch_109">
    <path d="M 757.178182 631.8288 
L 757.178182 85.1904 
" style="fill:none;stroke:#000000;stroke-linecap:square;stroke-linejoin:miter;stroke-width:0.8;"/>
   </g>
   <g id="patch_110">
    <path d="M 1244.16 631.8288 
L 1244.16 85.1904 
" style="fill:none;stroke:#000000;stroke-linecap:square;stroke-linejoin:miter;stroke-width:0.8;"/>
   </g>
   <g id="patch_111">
    <path d="M 757.178182 631.8288 
L 1244.16 631.8288 
" style="fill:none;stroke:#000000;stroke-linecap:square;stroke-linejoin:miter;stroke-width:0.8;"/>
   </g>
   <g id="patch_112">
    <path d="M 757.178182 85.1904 
L 1244.16 85.1904 
" style="fill:none;stroke:#000000;stroke-linecap:square;stroke-linejoin:miter;stroke-width:0.8;"/>
   </g>
   <g id="text_31">
    <!-- square(t) -->
    <defs>
     <path d="M 32.8125 77.734375 
Q 30.859375 74.21875 27.34375 61.71875 
L 44.921875 61.71875 
Q 44.53125 55.078125 44.53125 44.921875 
L 44.53125 10.546875 
Q 44.53125 4.6875 44.921875 -6.25 
L 37.109375 -6.25 
L 37.109375 1.5625 
L 17.1875 1.5625 
L 17.1875 -7.03125 
L 9.375 -7.03125 
Q 9.765625 5.46875 9.765625 8.59375 
L 9.765625 44.53125 
Q 9.765625 55.078125 9.375 61.71875 
L 20.703125 61.71875 
Q 22.65625 70.703125 23.828125 80.46875 
Q 29.296875 78.515625 32.8125 77.734375 
z
M 91.015625 48.046875 
Q 90.625 24.21875 89.0625 2.734375 
Q 88.28125 -4.296875 81.640625 -6.640625 
Q 75 -8.984375 66.796875 -9.765625 
Q 66.40625 -5.46875 63.28125 -0.78125 
Q 71.09375 -1.171875 75.578125 -0.390625 
Q 80.078125 0.390625 81.25 3.125 
Q 82.421875 5.859375 83 19.140625 
Q 83.59375 32.421875 83.984375 56.25 
L 61.328125 56.25 
Q 58.203125 48.828125 52.34375 38.671875 
Q 49.609375 41.40625 45.703125 42.96875 
Q 49.21875 47.65625 52.34375 54.296875 
Q 55.46875 60.9375 57.8125 68.75 
Q 60.15625 76.5625 60.546875 80.859375 
Q 66.015625 78.515625 69.921875 77.34375 
Q 67.96875 74.21875 66.59375 70.5 
Q 65.234375 66.796875 63.671875 63.28125 
L 91.40625 63.28125 
Q 91.015625 55.078125 91.015625 48.046875 
z
M 37.109375 8.203125 
L 37.109375 28.90625 
L 17.1875 28.90625 
L 17.1875 8.203125 
z
M 37.109375 35.546875 
L 37.109375 55.078125 
L 17.1875 55.078125 
L 17.1875 35.546875 
z
M 67.96875 32.03125 
Q 70.3125 27.34375 73.4375 19.921875 
Q 70.703125 18.75 66.015625 16.015625 
Q 63.28125 23.4375 60.9375 28.703125 
Q 58.59375 33.984375 56.25 37.5 
Q 58.984375 39.0625 63.28125 41.40625 
z
" id="SimHei-30340"/>
     <path d="M 66.40625 69.53125 
Q 55.859375 69.53125 48.828125 69.140625 
L 48.828125 75.78125 
Q 55.46875 75.390625 61.328125 75.390625 
L 81.640625 75.390625 
Q 87.5 75.390625 93.75 75.78125 
L 93.75 69.140625 
Q 87.5 69.53125 73.4375 69.53125 
Q 72.265625 63.28125 71.09375 56.640625 
L 91.796875 56.640625 
Q 91.40625 51.171875 91.40625 45.3125 
L 91.40625 25.78125 
Q 91.40625 20.3125 91.796875 11.71875 
L 84.375 11.71875 
L 84.375 50.78125 
L 60.546875 50.78125 
L 60.546875 12.5 
L 53.125 12.5 
Q 53.515625 19.921875 53.515625 25.78125 
L 53.515625 44.140625 
Q 53.515625 51.171875 53.125 56.640625 
L 64.453125 56.640625 
Q 65.625 64.0625 66.40625 69.53125 
z
M 26.171875 42.96875 
Q 10.15625 42.96875 5.46875 42.578125 
L 5.46875 49.21875 
Q 8.59375 48.828125 11.328125 48.828125 
Q 11.328125 66.796875 10.9375 72.265625 
L 18.75 72.265625 
Q 18.359375 66.796875 18.359375 48.828125 
L 26.171875 48.828125 
L 26.171875 66.796875 
Q 26.171875 74.21875 25.78125 80.078125 
L 33.59375 80.078125 
Q 33.203125 74.21875 33.203125 66.40625 
Q 41.015625 66.40625 47.265625 66.796875 
L 47.265625 60.15625 
Q 41.015625 60.546875 33.203125 60.546875 
L 33.203125 48.828125 
Q 44.53125 48.828125 49.21875 49.21875 
L 49.21875 42.578125 
Q 44.53125 42.96875 33.203125 42.96875 
L 26.171875 42.96875 
z
M 33.59375 40.625 
Q 33.203125 35.15625 33.203125 30.078125 
L 33.203125 16.40625 
Q 40.625 25.78125 41.40625 34.375 
Q 44.921875 32.8125 49.609375 32.421875 
Q 44.53125 16.796875 34.171875 7.03125 
Q 23.828125 -2.734375 10.9375 -7.8125 
Q 8.59375 -3.90625 3.125 -1.171875 
Q 11.71875 1.171875 16.984375 3.703125 
Q 22.265625 6.25 26.171875 9.765625 
L 26.171875 29.6875 
Q 26.171875 35.15625 25.78125 40.625 
L 33.59375 40.625 
z
M 43.359375 -3.90625 
Q 53.125 -1.171875 58.390625 3.515625 
Q 63.671875 8.203125 65.8125 13.859375 
Q 67.96875 19.53125 68.15625 26.953125 
Q 68.359375 34.375 67.96875 42.96875 
Q 72.65625 42.1875 76.953125 41.40625 
Q 75.78125 36.328125 75.578125 30.859375 
Q 75.390625 25.390625 74.21875 17.375 
Q 73.046875 9.375 67.1875 2.53125 
Q 61.328125 -4.296875 50.78125 -10.15625 
Q 48.046875 -7.03125 43.359375 -3.90625 
z
M 91.40625 -10.15625 
Q 86.71875 -4.296875 75 3.90625 
Q 77.734375 6.640625 79.296875 9.375 
Q 91.015625 1.171875 96.875 -3.90625 
Q 93.359375 -6.640625 91.40625 -10.15625 
z
M 6.25 18.359375 
Q 10.15625 24.21875 14.0625 37.109375 
Q 17.578125 35.546875 21.484375 34.765625 
Q 15.625 20.703125 13.28125 16.015625 
Q 10.15625 17.96875 6.25 18.359375 
z
" id="SimHei-39057"/>
     <path d="M 87.5 28.90625 
Q 87.109375 21.484375 87.109375 8.984375 
Q 87.109375 -3.515625 87.5 -10.9375 
L 79.6875 -10.9375 
L 79.6875 -4.6875 
L 48.4375 -4.6875 
L 48.4375 -10.546875 
L 40.625 -10.546875 
Q 41.015625 -1.953125 41.015625 9.765625 
Q 41.015625 21.484375 40.625 28.90625 
L 87.5 28.90625 
z
M 67.96875 67.96875 
Q 72.265625 76.5625 73.828125 82.421875 
Q 77.734375 80.46875 82.421875 78.90625 
Q 79.296875 76.171875 75.390625 67.96875 
Q 88.28125 67.96875 94.53125 68.359375 
L 94.53125 62.109375 
Q 89.453125 62.5 75 62.5 
L 75 42.1875 
Q 87.109375 42.1875 96.484375 42.578125 
L 96.484375 36.328125 
Q 89.84375 36.71875 83.984375 36.71875 
L 42.96875 36.71875 
Q 35.546875 36.71875 29.296875 36.328125 
L 29.296875 42.578125 
Q 35.546875 42.1875 51.5625 42.1875 
L 51.5625 62.5 
Q 38.671875 62.5 32.8125 62.109375 
L 32.8125 68.359375 
Q 40.234375 67.96875 51.171875 67.96875 
Q 49.609375 71.09375 44.140625 77.34375 
Q 47.265625 79.6875 49.609375 82.03125 
Q 55.46875 75.390625 58.203125 71.875 
Q 55.859375 69.921875 53.90625 67.96875 
z
M 35.15625 8.984375 
Q 31.640625 6.25 26.5625 1.359375 
Q 21.484375 -3.515625 18.359375 -7.421875 
Q 16.40625 -3.515625 12.5 -1.5625 
Q 15.625 0.78125 15.625 4.296875 
L 15.625 42.578125 
Q 8.59375 42.578125 3.515625 42.1875 
L 3.515625 49.21875 
Q 8.203125 48.828125 11.328125 48.828125 
L 23.046875 48.828125 
Q 22.65625 42.578125 22.65625 36.71875 
L 22.65625 7.03125 
Q 26.171875 10.15625 30.46875 16.015625 
Q 31.640625 13.28125 35.15625 8.984375 
z
M 79.6875 14.84375 
L 79.6875 23.046875 
L 48.4375 23.046875 
L 48.4375 14.84375 
z
M 79.6875 0.78125 
L 79.6875 8.984375 
L 48.4375 8.984375 
L 48.4375 0.78125 
z
M 67.96875 42.1875 
L 67.96875 62.5 
L 58.59375 62.5 
L 58.59375 42.1875 
z
M 14.453125 77.734375 
Q 18.359375 73.4375 26.953125 64.84375 
Q 23.046875 62.5 19.921875 59.375 
Q 14.0625 67.1875 8.59375 72.65625 
Q 10.9375 74.609375 14.453125 77.734375 
z
M 91.40625 57.421875 
Q 86.328125 48.046875 83.984375 44.140625 
Q 80.859375 46.484375 78.125 46.875 
Q 82.03125 53.90625 83.984375 60.15625 
Q 87.890625 58.203125 91.40625 57.421875 
z
M 35.15625 56.25 
Q 38.28125 57.421875 41.015625 59.375 
Q 45.3125 53.515625 48.4375 48.4375 
Q 44.53125 46.875 41.40625 44.921875 
Q 39.453125 50.390625 35.15625 56.25 
z
" id="SimHei-35889"/>
    </defs>
    <g transform="translate(955.669091 79.1904)scale(0.12 -0.12)">
     <use xlink:href="#SimHei-115"/>
     <use x="50" xlink:href="#SimHei-113"/>
     <use x="100" xlink:href="#SimHei-117"/>
     <use x="150" xlink:href="#SimHei-97"/>
     <use x="200" xlink:href="#SimHei-114"/>
     <use x="250" xlink:href="#SimHei-101"/>
     <use x="300" xlink:href="#SimHei-40"/>
     <use x="350" xlink:href="#SimHei-116"/>
     <use x="400" xlink:href="#SimHei-41"/>
     <use x="450" xlink:href="#SimHei-30340"/>
     <use x="550" xlink:href="#SimHei-39057"/>
     <use x="650" xlink:href="#SimHei-35889"/>
    </g>
   </g>
  </g>
 </g>
 <defs>
  <clipPath id="pbd07798990">
   <rect height="546.6384" width="486.981818" x="172.8" y="85.1904"/>
  </clipPath>
  <clipPath id="p519a6fd301">
   <rect height="546.6384" width="486.981818" x="757.178182" y="85.1904"/>
  </clipPath>
 </defs>
</svg>
